<svg id="sprite" xmlns="http://www.w3.org/2000/svg" version="1.0">

    <symbol id="icon-hamburger" viewBox="0 0 24 18">
        <g>
        <line fill="none" stroke-miterlimit="10" x1="0" y1="1.5" x2="24" y2="1.5"/>
        <line fill="none" stroke-miterlimit="10" x1="0" y1="8.5" x2="24" y2="8.5"/>
        <line fill="none" stroke-miterlimit="10" x1="0" y1="15.5" x2="24" y2="15.5"/>
        </g>
    </symbol>

    <symbol id="icon-right" viewBox="0 0 100 100">
        <path d="M32.59,78.41a2,2,0,0,0,2.83,0l29-29a2,2,0,0,0,0-2.83l-29-29a2,2,0,0,0-2.83,2.83L60.17,48,32.59,75.59A2,2,0,0,0,32.59,78.41Z"/>
    </symbol>

    <symbol id="icon-left" viewBox="0 0 96 96">
        <path d="M61.59,78.41a2,2,0,0,0,2.83-2.83L36.83,48,64.41,20.41a2,2,0,0,0-2.83-2.83l-29,29a2,2,0,0,0,0,2.83Z"/>
    </symbol>

    <symbol id="icon-down" viewBox="0 0 96 96">
        <path d="M45.59,63.41a2,2,0,0,0,2.83,0l29-29a2,2,0,0,0-2.83-2.83L47,59.17,19.41,31.59a2,2,0,0,0-2.83,2.83Z"/>
    </symbol>

    <symbol id="icon-play" viewBox="0 0 24 24">
        <path d="M0 0h24v24H0z" fill="none"/>
        <path d="M12 2C6.48 2 2 6.48 2 12s4.48 10 10 10 10-4.48 10-10S17.52 2 12 2zm-2 14.5v-9l6 4.5-6 4.5z"/>
    </symbol>

    <symbol id="icon-search-filled" viewBox="0 0 100 100">
        <g><path d="M73.975,71.105c6.353-6.997,10.23-16.282,10.23-26.455c0-21.723-17.673-39.395-39.395-39.395S5.414,22.927,5.414,44.65   c0,21.722,17.673,39.395,39.395,39.395c10.094,0,19.31-3.82,26.289-10.085"/><line fill="none" stroke="#000000" stroke-width="7" stroke-linecap="round" stroke-miterlimit="10" x1="91.323" y1="91.32" x2="69.657" y2="69.653"/></g>
    </symbol>

    <symbol id="icon-search" viewBox="0 0 20 20">
        <g>
            <line fill="none" stroke-miterlimit="10" stroke-linecap="butt" x1="13.9" y1="14" x2="18.6" y2="18.6"/>
            <circle fill="none" stroke-miterlimit="10" cx="9" cy="9" r="7"/>
        </g>
    </symbol>

    <symbol id="icon-close" viewBox="0 0 18 18">
        <g>
            <line fill="none" stroke-miterlimit="10" stroke-linecap="butt" x1="0" y1="0" x2="18" y2="18"/>
            <line fill="none" stroke-miterlimit="10" stroke-linecap="butt" x1="18" y1="0" x2="0" y2="18"/>
        </g>
    </symbol>

    <symbol id="icon-plus" viewBox="0 0 100 100">
        <g transform="translate(0,-952.36218)">
            <path d="M 49.875 6.96875 A 1.0001 1.0001 0 0 0 49 8 L 49 49 L 8 49 A 1.0001 1.0001 0 0 0 7.8125 49 A 1.0043849 1.0043849 0 0 0 8 51 L 49 51 L 49 92 A 1.0001 1.0001 0 1 0 51 92 L 51 51 L 92 51 A 1.0001 1.0001 0 1 0 92 49 L 51 49 L 51 8 A 1.0001 1.0001 0 0 0 49.875 6.96875 z " transform="translate(0,952.36218)"/>
        </g>
    </symbol>

    <symbol id="icon-bag" viewBox="0 0 34 38">
        <g>
            <path id="XMLID_2_" fill="none" stroke-miterlimit="10" d="M29,36H5c-1.7,0-3-1.6-3-3.5L4,15h26 l2,17.5C32,34.4,30.7,36,29,36z"/>
            <path id="XMLID_1_" fill="none" stroke-miterlimit="10" d="M11.8,11c0-1.4,0.6-9,5.2-9s5,8.6,5,9 "/>
        </g>
    </symbol>

    <symbol id="icon-filled-bag" viewBox="0 0 100 105">
        <path d="M65.4,37.7c-1.1,0-2-0.9-2-2V22.4C63.4,15,57.4,9,50,9c-7.4,0-13.4,6-13.4,13.4v13.3c0,1.1-0.9,2-2,2s-2-0.9-2-2V22.4  C32.6,12.8,40.4,5,50,5c9.6,0,17.4,7.8,17.4,17.4v13.3C67.4,36.8,66.5,37.7,65.4,37.7z"/><g><path d="M79.1,27.6h-7.7v8.1c0,3.3-2.7,6-6,6s-6-2.7-6-6v-8.1H40.6v8.1c0,3.3-2.7,6-6,6s-6-2.7-6-6v-8.1h-7.7c-1.1,0-2,0.9-2,2V93   c0,1.1,0.9,2,2,2h58.2c1.1,0,2-0.9,2-2V29.6C81.1,28.5,80.2,27.6,79.1,27.6z"/></g>
    </symbol>

    <symbol id="icon-bags" viewBox="0 0 100 100">
        <path d="M13.3,94h27.9c0.6,0,1-0.4,1-1s-0.4-1-1-1H13.3c-5.4,0-9.9-4.4-9.9-9.9V23.4h14.1V32c0,0.6,0.4,1,1,1s1-0.4,1-1v-8.5h26.1  V32c0,0.6,0.4,1,1,1s1-0.4,1-1v-8.5h14.1v4.9c0,0.6,0.4,1,1,1s1-0.4,1-1v-5.9c0-0.6-0.4-1-1-1H47.7v-0.4C47.7,12.8,41,6,32.7,6  c-8.3,0-15.1,6.8-15.1,15.1v0.4H2.5c-0.6,0-1,0.4-1,1v59.7C1.5,88.7,6.8,94,13.3,94z M19.6,21.1C19.6,13.9,25.5,8,32.7,8  s13.1,5.9,13.1,13.1v0.4H19.6V21.1z M85.5,45.3c0-6.7-5.4-12.1-12.1-12.1s-12.1,5.4-12.1,12.1v3.3h-12c-0.6,0-1,0.4-1,1v26.8  c0,9.7,7.9,17.6,17.6,17.6H81c9.7,0,17.6-7.9,17.6-17.6V49.6c0-0.6-0.4-1-1-1h-12V45.3z M63.2,45.3c0-5.6,4.5-10.1,10.1-10.1  s10.1,4.5,10.1,10.1v3.3H63.2V45.3z M96.5,50.6v25.8C96.5,85,89.6,92,81,92H65.8c-8.6,0-15.6-7-15.6-15.6V50.6h11v6c0,0.6,0.4,1,1,1  s1-0.4,1-1v-6h20.3v6c0,0.6,0.4,1,1,1s1-0.4,1-1v-6H96.5z"/>
    </symbol>

    <symbol id="icon-approved-basket" viewBox="0 0 24 25">
        <g><path d="M22.5,7h-22C0.224,7,0,6.777,0,6.5S0.224,6,0.5,6h22C22.776,6,23,6.224,23,6.5S22.776,7,22.5,7z"/></g><g><path d="M6.5,7C6.404,7,6.308,6.973,6.223,6.916c-0.23-0.153-0.292-0.463-0.139-0.693l4-6c0.152-0.23,0.462-0.292,0.693-0.139    c0.23,0.153,0.292,0.463,0.139,0.693l-4,6C6.82,6.922,6.661,7,6.5,7z"/></g><g><path d="M16.5,7c-0.162,0-0.32-0.078-0.417-0.223l-4-6c-0.153-0.23-0.091-0.54,0.139-0.693s0.54-0.092,0.693,0.139l4,6    c0.153,0.23,0.091,0.54-0.139,0.693C16.692,6.973,16.596,7,16.5,7z"/></g><path d="M21.897,6.196C21.803,6.073,21.656,6,21.5,6h-20C1.344,6,1.197,6.073,1.103,6.196C1.008,6.32,0.977,6.482,1.018,6.631   l2.598,9.526C3.912,17.243,4.903,18,6.027,18h5.553c0.249,0,0.459-0.183,0.495-0.429c0.524-3.649,4.041-6.291,7.896-5.396   c0.262,0.064,0.525-0.096,0.596-0.355l1.415-5.188C22.023,6.482,21.992,6.32,21.897,6.196z"/><path d="M18.5,13c-3.033,0-5.5,2.467-5.5,5.5s2.467,5.5,5.5,5.5s5.5-2.467,5.5-5.5S21.533,13,18.5,13z M21.854,16.853l-4,4   C17.756,20.951,17.628,21,17.5,21s-0.256-0.049-0.354-0.146l-2-2c-0.195-0.195-0.195-0.512,0-0.707s0.512-0.195,0.707,0   l1.646,1.646l3.646-3.646c0.195-0.195,0.512-0.195,0.707,0S22.049,16.658,21.854,16.853z"/>
    </symbol>

    <symbol id="icon-cart" viewBox="0 0 30 24">
        <g>
            <circle stroke-miterlimit="10" cx="22.5" cy="21.5" r="1"/>
            <circle stroke-miterlimit="10" cx="9.5" cy="21.5" r="1"/>
            <path fill="none" stroke-miterlimit="10" d="M0,1.5h5c0.6,0,1.1,0.4,1.1,1l1.7,13 c0.1,0.5,0.6,1,1.1,1h15c0.5,0,1.2-0.4,1.4-0.9l3.3-8.1c0.2-0.5-0.1-0.9-0.6-0.9H12"/>
        </g>
    </symbol>

    <symbol id="icon-approved-cart" viewBox="0 0 24 24">
        <g><g><circle cx="18.5" cy="21.5" r="2.5"/><circle cx="8.5" cy="21.5" r="2.5"/></g><g><path d="M20.5,18H8.959c-1.663,0-3.106-1.183-3.432-2.813L3.09,3H0.5C0.224,3,0,2.776,0,2.5S0.224,2,0.5,2h3    c0.238,0,0.443,0.168,0.49,0.402L6.508,14.99C6.741,16.155,7.771,17,8.959,17H20.5c0.276,0,0.5,0.224,0.5,0.5S20.776,18,20.5,18z"/></g><path d="M21.972,11.279c-0.149-0.088-0.332-0.094-0.485-0.013C20.552,11.753,19.547,12,18.5,12c-3.584,0-6.496-2.71-6.491-6.376   c0-0.007,0.005-0.103,0.006-0.109c0.004-0.138-0.049-0.271-0.146-0.368C11.771,5.049,11.636,4.997,11.5,5L4.485,5   C4.339,5.004,4.202,5.073,4.111,5.187C4.019,5.3,3.981,5.448,4.009,5.592l1.5,8C5.553,13.829,5.759,14,6,14h13.734   c1.258,0,2.325-0.941,2.48-2.19c0.003-0.025,0.003-0.088,0.003-0.113C22.213,11.525,22.12,11.367,21.972,11.279z"/><path d="M18.5,0C15.467,0,13,2.467,13,5.5s2.467,5.5,5.5,5.5S24,8.533,24,5.5S21.533,0,18.5,0z M21.854,3.854l-4,4   C17.756,7.951,17.628,8,17.5,8s-0.256-0.049-0.354-0.146l-2-2c-0.195-0.195-0.195-0.512,0-0.707s0.512-0.195,0.707,0L17.5,6.793   l3.646-3.646c0.195-0.195,0.512-0.195,0.707,0S22.049,3.658,21.854,3.854z"/></g>
    </symbol>

    <symbol id="icon-empty-cart" viewBox="0 0 24 30">
        <g><g><path d="M18.5,24c-1.379,0-2.5-1.122-2.5-2.5s1.121-2.5,2.5-2.5s2.5,1.122,2.5,2.5S19.879,24,18.5,24z M18.5,20    c-0.827,0-1.5,0.673-1.5,1.5s0.673,1.5,1.5,1.5s1.5-0.673,1.5-1.5S19.327,20,18.5,20z"/><path d="M8.5,24C7.121,24,6,22.878,6,21.5S7.121,19,8.5,19s2.5,1.122,2.5,2.5S9.879,24,8.5,24z M8.5,20C7.673,20,7,20.673,7,21.5    S7.673,23,8.5,23s1.5-0.673,1.5-1.5S9.327,20,8.5,20z"/><path d="M20.5,18H8.959c-1.663,0-3.105-1.183-3.432-2.813L3.09,3H0.5C0.224,3,0,2.776,0,2.5S0.224,2,0.5,2h3    c0.238,0,0.443,0.168,0.49,0.402L6.508,14.99C6.74,16.155,7.771,17,8.959,17H20.5c0.276,0,0.5,0.224,0.5,0.5S20.776,18,20.5,18z"/><path d="M19.734,14H6c-0.276,0-0.5-0.224-0.5-0.5S5.724,13,6,13h13.734c0.755,0,1.395-0.565,1.488-1.314    c0.034-0.275,0.298-0.468,0.558-0.434c0.274,0.034,0.469,0.284,0.435,0.558C22.059,13.059,20.992,14,19.734,14z"/><path d="M11.5,6h-7C4.224,6,4,5.776,4,5.5S4.224,5,4.5,5h7C11.776,5,12,5.224,12,5.5S11.776,6,11.5,6z"/></g><g><path d="M18.5,11C15.468,11,13,8.533,13,5.5S15.468,0,18.5,0S24,2.467,24,5.5S21.532,11,18.5,11z M18.5,1    C16.019,1,14,3.019,14,5.5s2.019,4.5,4.5,4.5S23,7.981,23,5.5S20.981,1,18.5,1z"/></g><path d="M20.5,8c-0.128,0-0.256-0.049-0.354-0.146l-4-4c-0.195-0.195-0.195-0.512,0-0.707s0.512-0.195,0.707,0l4,4   c0.195,0.195,0.195,0.512,0,0.707C20.756,7.951,20.628,8,20.5,8z"/><path d="M16.5,8c-0.128,0-0.256-0.049-0.354-0.146c-0.195-0.195-0.195-0.512,0-0.707l4-4c0.195-0.195,0.512-0.195,0.707,0   s0.195,0.512,0,0.707l-4,4C16.756,7.951,16.628,8,16.5,8z"/></g>
    </symbol>

    <symbol id="icon-heart" viewBox="0 0 29 29">
        <path d="M19.5 4c-1.948 0-3.77.898-5 2.434C13.27 4.898 11.448 4 9.5 4 5.916 4 3 7.02 3 10.734c0 4.793 6.227 10 9.95 13.11.296.25.853.723 1.212 1.03.196.166.48.166.677 0 .39-.332 1.02-.87 1.37-1.158 3.66-3.022 9.79-8.08 9.79-12.982C26 7.02 23.08 4 19.5 4z" fill-rule="evenodd"></path>
    </symbol>

    <symbol id="icon-pinterest-share" viewBox="0 0 131.36 58.79">
        <path class="cls-1" d="M386.62,364.33a5.62,5.62,0,0,0,5.26-4.69,3.71,3.71,0,0,0-3.66-4.62,5.64,5.64,0,0,0-5.26,4.62A3.71,3.71,0,0,0,386.62,364.33Zm31.85,25.62c-1.74,0-2.47-.89-2.47-2.81,0-3,2.91-10.57,2.91-14,0-4.58-2.41-7.23-7.34-7.23a10.75,10.75,0,0,0-7.7,3.85s0.41-1.47.56-2a0.9,0.9,0,0,0-.93-1.19h-4.82a1.32,1.32,0,0,0-1.46,1.18l-3.47,13.9c-1.14,4.58-3.92,8.4-6.88,8.4-1.53,0-2.2-1-2.2-2.63,0-1.43.91-5,2-9.36,1.32-5.34,2.48-9.74,2.6-10.25a0.91,0.91,0,0,0-1-1.23h-4.85a1.29,1.29,0,0,0-1.38,1.12s-1.37,5.28-2.81,11.15c-1.05,4.26-2.21,8.6-2.21,10.64,0,3.64,1.6,6.38,6,6.38a11,11,0,0,0,8.14-4l-0.51,2.06a0.89,0.89,0,0,0,.84,1.31h5a1.22,1.22,0,0,0,1.38-1.12c0.17-.73,3.88-15.62,3.88-15.62,1-4,3.41-6.65,6.82-6.65a2.76,2.76,0,0,1,2.86,3.22c-0.18,2.34-2.94,10.73-2.94,14.41,0,2.79,1,6.4,6.16,6.4a10.21,10.21,0,0,0,8-3.93l-2.24-2.76A2.83,2.83,0,0,1,418.47,389.95ZM358,343.61c-15.73,0-23.66,11.5-23.66,21.09,0,5.81,2.15,11,6.78,12.9a1.14,1.14,0,0,0,1.66-.85c0.15-.59.51-2.09,0.68-2.71a1.66,1.66,0,0,0-.48-1.88,9.86,9.86,0,0,1-2.18-6.62,15.83,15.83,0,0,1,16.3-16.17c8.89,0,13.77,5.54,13.77,12.94,0,9.74-4.22,18-10.49,18a5.2,5.2,0,0,1-5.22-6.5c1-4.28,2.92-8.89,2.92-12,0-2.76-1.45-5.07-4.46-5.07-3.54,0-6.38,3.74-6.38,8.74a13.21,13.21,0,0,0,1.06,5.34L344,389.19c-1.26,5.46-.19,12.16-0.1,12.83a0.44,0.44,0,0,0,.79.19c0.33-.43,4.54-5.74,6-11,0.41-1.5,2.33-9.28,2.33-9.28,1.15,2.24,4.51,4.21,8.09,4.21,10.64,0,17.86-9.9,17.86-23.14C378.93,352.94,370.61,343.61,358,343.61Zm82.22,20.72a5.6,5.6,0,0,0,5.23-4.67,3.69,3.69,0,0,0-3.64-4.6,5.61,5.61,0,0,0-5.24,4.6A3.7,3.7,0,0,0,440.2,364.32Zm24.54,2h-5s2.29-9.32,2.34-9.55a1.08,1.08,0,0,0-1.37-1.32l-4.55.92a1.87,1.87,0,0,0-1.53,1.6l-2,8.35h-4a1.23,1.23,0,0,0-1.36,1c-0.24,1-.69,2.84-0.81,3.33a0.85,0.85,0,0,0,.91,1.14h3.91c0,0.11-1.41,5.49-2.53,10.31-0.53,2.32-3.73,7.74-6.63,7.74-1.52,0-3.87-1-3.87-2.63,0-1.43.9-4.95,2-9.31,1.31-5.32,2.47-9.7,2.59-10.21a0.9,0.9,0,0,0-1-1.23H437a1.28,1.28,0,0,0-1.37,1.12s-1.36,5.25-2.8,11.1c-1,4.24-2.2,8.57-2.2,10.6,0,3.62,4.8,6.36,9.19,6.36a9.88,9.88,0,0,0,7.81-3.85c0.68,2.34,2.5,3.91,5.82,3.91,5.53,0,8.86-3.34,10.82-6.7l-2.72-2.19c-1.18,1.75-2.74,3.06-4.38,3.06s-2.36-1-2.36-2.62c0-1.43,1-4.91,2.06-9.28l1.52-6.16h5.06a1.23,1.23,0,0,0,1.37-1c0.24-1,.69-2.84.81-3.33A0.85,0.85,0,0,0,464.74,366.34Z" transform="translate(-334.32 -343.61)"/>
    </symbol>

    <symbol id="icon-facebook-share" viewBox="0 0 100 125">
        <path d="M95,58.698c0-2.575-1.059-5.011-2.857-6.772c1.287-1.63,2-3.643,2.016-5.773c0.018-2.448-0.96-4.793-2.752-6.597  c-1.861-1.874-4.418-2.948-7.02-2.948H63.972l1.313-8.516c0.168-1.076,0.248-2.177,0.248-3.267c0-8.425-5.689-18.217-13.021-18.217  c-2.122,0-4.189,0.749-5.817,2.107L45.94,9.347l1.065,13.998c0.045,0.598-0.002,1.19-0.14,1.76c-0.14,0.574-0.37,1.124-0.679,1.631  l-11.215,20.78l-4.196,3.59v34.363l2.941,1.336c0.273,0.124,0.563,0.32,0.911,0.616c4.007,3.407,9.185,3.447,9.404,3.447  l32.668-0.012l0.104-0.004c5.02-0.277,8.948-4.43,8.948-9.452c0-0.759-0.088-1.505-0.264-2.228c3.419-1.462,5.729-4.832,5.729-8.702  c0-1.283-0.254-2.524-0.745-3.682C93.249,65.102,95,62.075,95,58.698z M87.211,64.1l-2.593,0.807l1.633,2.166  c0.75,0.992,1.145,2.168,1.145,3.396c0,2.771-1.986,5.113-4.719,5.572l-2.592,0.431l1.209,2.334c0.422,0.81,0.636,1.686,0.636,2.593  c0,2.979-2.318,5.442-5.289,5.634l-32.605,0.014c-0.097-0.002-4.04-0.075-6.93-2.536c-0.625-0.533-1.201-0.912-1.809-1.186  l-0.699-0.319l0,0v-30.14l3.397-2.906l11.475-21.273c0.507-0.834,0.879-1.735,1.106-2.678c0.234-0.959,0.313-1.951,0.237-2.951  l-0.908-11.935c0.792-0.449,1.689-0.692,2.606-0.692c4.954,0,9.2,7.916,9.2,14.395c0,0.9-0.07,1.805-0.205,2.687l-1.993,12.92  h24.872c1.591,0,3.158,0.663,4.307,1.819c1.07,1.077,1.654,2.454,1.643,3.876c-0.011,1.764-0.83,3.392-2.245,4.464l-2.314,1.752  l2.524,1.434c1.775,1.004,2.876,2.893,2.876,4.923C91.177,61.188,89.583,63.359,87.211,64.1z M30.671,44.519H8.926  C6.76,44.519,5,46.281,5,48.446v41.018c0,2.164,1.76,3.928,3.926,3.928h21.746c2.165,0,3.928-1.764,3.926-3.928V48.446  C34.598,46.281,32.835,44.519,30.671,44.519z M22.316,86.248c-2.268,0-4.107-1.838-4.107-4.105s1.839-4.106,4.107-4.106  s4.106,1.839,4.106,4.106C26.422,84.411,24.584,86.248,22.316,86.248z"/>
    </symbol>

    <symbol id="icon-twitter-share" viewBox="0 0 90 82">
        <path d="M60.879,19.71c3.676,0,6.99,1.549,9.321,4.032c1.932,0.05,2.136,0.068,3.07,0.068c0.562,0,1.388-0.007,3.011-0.018   c-1.03,3.618-1.305,4.361-2.626,8.515c0.024,0.548,0.037,1.097,0.037,1.652c0,16.872-12.844,36.329-36.33,36.329   c-11.246,0-17.558-5.559-16.528-5.559c5.982,0,11.49-2.039,15.86-5.465c-5.588-0.104-25.929-13.025-14.573-37.217   c6.299,7.724,15.708,12.807,26.321,13.339c-0.22-0.934-0.332-1.907-0.332-2.91C48.11,25.426,53.827,19.71,60.879,19.71    M76.281,23.793h0.005 M60.879,16.71c-8.546,0-15.525,6.833-15.762,15.321c-8.059-1.267-15.454-5.482-20.67-11.879   c-0.573-0.703-1.43-1.104-2.324-1.104c-0.122,0-0.245,0.007-0.367,0.022c-1.024,0.126-1.911,0.769-2.349,1.703   c-6.369,13.567-3.303,23.489,0.391,29.423c2.667,4.286,6.408,7.649,9.964,9.725c-2.789,1.193-5.803,1.81-8.926,1.81   c-1.714,0-3.109,1.382-3.109,3.08c0,2.953,4.644,5.043,6.169,5.73c2.785,1.254,7.382,2.748,13.468,2.748   c14.788,0,24.054-6.99,29.223-12.854c6.424-7.287,10.107-16.937,10.107-26.475c0-0.41-0.007-0.825-0.02-1.242   c0.22-0.688,0.408-1.276,0.576-1.801c0.743-2.32,1.089-3.397,1.881-6.175c0.1-0.298,0.154-0.618,0.154-0.95   c0-1.657-1.341-3-2.997-3c-0.002,0-0.004,0-0.006,0c-0.007,0-0.014,0-0.02,0L75.295,20.8c-1,0.007-1.592,0.011-2.024,0.011   c-0.602,0-0.884-0.008-1.576-0.028l-0.239-0.007C68.572,18.179,64.786,16.71,60.879,16.71L60.879,16.71z"/>
    </symbol>

    <symbol id="icon-sticky" viewBox="0 0 50 50">
        <path d="M49,40.29L42.84,16l2.94-2.59a1.76,1.76,0,0,0,.38,0,1.75,1.75,0,0,0,1.24-3,1.79,1.79,0,0,0-2.48,0A1.74,1.74,0,0,0,44.44,12l-2.15,1.89-0.78-3.09A1,1,0,0,0,40.3,10l-1.22.31L39.4,8.91a1,1,0,0,0-.76-1.2L8.91,1a1,1,0,0,0-1.2.76L1,31.51a1,1,0,0,0,.76,1.2l12.49,2.81,3.21,12.73a1,1,0,0,0,1,.75,1,1,0,0,0,.25,0l29.54-7.46A1,1,0,0,0,49,40.29ZM3.2,31L9.45,3.2,37.23,9.45,36.9,10.89l-26.15,6.6A1,1,0,0,0,10,18.7l3.7,14.64Zm16,15.81-7-27.6,25.7-6.49h0l1.89-.48,0.79,3.12-4.35,3.83a1,1,0,0,0,1.32,1.5l3.58-3.15,5.63,22.3ZM40,23.9a1,1,0,0,1-.7,1.23L20.18,30.44a1,1,0,0,1-.27,0,1,1,0,0,1-.27-2L38.77,23.2A1,1,0,0,1,40,23.9Zm-3.2,7.41a1,1,0,0,1-.66,1.25L22.33,36.81a1,1,0,0,1-.59-1.91l13.81-4.25A1,1,0,0,1,36.81,31.31ZM11.49,10.17a1,1,0,0,1,1.16-.81l11.69,2.12a1,1,0,0,1-.18,2l-0.18,0L12.3,11.34A1,1,0,0,1,11.49,10.17Z"/>
    </symbol>

    <symbol id="icon-404" viewBox="0 0 900 400">
        <g id="number_4">
            <path id="number_4_outline" class="st13" d="M379.5,235.5c0-4.9-3.9-9.1-8.7-9.1h-11.4v-72.5c0-9.1-8.5-15.7-17.6-15
                c-6,0-11.8,3.1-15.1,8l-52.7,79.8c-1.2,2.1-2.1,4.5-2.1,6.6c0,6.6,5,11.1,10.3,11.1H339v24.3c0,5.6,4.3,10.1,9.9,10.1
                c6,0,10.5-4.5,10.5-10.1v-24.3h11.4C375.6,244.3,379.5,240.4,379.5,235.5z M339,226.4h-45.5l45.5-67.8V226.4z"/>
            <path id="number_4_inner_lines" class="st14" d="M349,158v109.2 M345.9,147c-5.6,0-10.9,2.8-14,7.2l-47.1,69.5
                c-1.2,1.9-3.3,4.3-3.6,5.8c-0.8,4.6,2.3,5.5,7.3,5.5H340 M359.5,235H379 M342,232l-4,7 M345,232l-4,7 M358,232l-4,7 M361,232l-4,7"
                />
            <path id="number_4_dots" class="st9" d="M349,266c1.6,0,2.9,1.3,2.9,2.9c0,1.6-1.3,2.9-2.9,2.9c-1.6,0-2.9-1.3-2.9-2.9
                C346.1,267.3,347.4,266,349,266z M349,155.1c1.6,0,2.9,1.3,2.9,2.9s-1.3,2.9-2.9,2.9c-1.6,0-2.9-1.3-2.9-2.9S347.4,155.1,349,155.1
                z M344.4,144.6c1.6,0,2.9,1.3,2.9,2.9c0,1.6-1.3,2.9-2.9,2.9c-1.6,0-2.9-1.3-2.9-2.9C341.4,145.9,342.7,144.6,344.4,144.6z"/>
        </g>
        <g id="number_4_2">
            <path id="number_4_outline_2" class="st13" d="M627,235.5c0-4.9-3.9-9.1-8.7-9.1h-11.4v-72.5c0-9.1-8.5-15.7-17.6-15
                c-6,0-11.8,3.1-15.1,8l-52.7,79.8c-1.2,2.1-2.1,4.5-2.1,6.6c0,6.6,5,11.1,10.3,11.1h56.7v24.3c0,5.6,4.3,10.1,9.9,10.1
                c6,0,10.5-4.5,10.5-10.1v-24.3h11.4C623.1,244.3,627,240.4,627,235.5z M586.5,226.4H541l45.5-67.8V226.4z"/>
            <path id="number_4_inner_lines_2" class="st14" d="M596.5,158v109.2 M593.3,147c-5.6,0-10.9,2.8-14,7.2l-47.1,69.5
                c-1.2,1.9-3.3,4.3-3.6,5.8c-0.8,4.6,2.3,5.5,7.3,5.5h51.5 M607,235h19.5 M589.5,232l-4,7 M592.5,232l-4,7 M605.5,232l-4,7
                 M608.5,232l-4,7"/>
            <path id="number_4_dots_2" class="st9" d="M596.5,266c1.6,0,2.9,1.3,2.9,2.9c0,1.6-1.3,2.9-2.9,2.9c-1.6,0-2.9-1.3-2.9-2.9
                C593.6,267.3,594.9,266,596.5,266z M596.5,155.1c1.6,0,2.9,1.3,2.9,2.9s-1.3,2.9-2.9,2.9c-1.6,0-2.9-1.3-2.9-2.9
                S594.9,155.1,596.5,155.1z M591.8,144.6c1.6,0,2.9,1.3,2.9,2.9c0,1.6-1.3,2.9-2.9,2.9c-1.6,0-2.9-1.3-2.9-2.9
                C588.9,145.9,590.2,144.6,591.8,144.6z"/>
        </g>
        <g id="number_0">
            <path id="number_0_outline" class="st13" d="M502,208.9c0-34-15.9-70.9-54-70.9c-38.3,0-54,36.9-54,70.9s15.7,71.1,54,71.1
                C486.1,280,502,242.9,502,208.9z M481.1,208.9c0,26.8-8.7,53-33.1,53c-24.6,0-33.1-26.2-33.1-53c0-26.8,8.5-52.8,33.1-52.8
                C472.4,156.1,481.1,182.1,481.1,208.9z"/>
            <path id="number_0_inner_lines" class="st15" d="M487.2,175.7c-6.7-16.8-19.3-29.4-39.2-29.4c-32,0-45.1,32.5-45.1,62.4
                s13.1,62.6,45.1,62.6c31.8,0,44.1-32.6,44.1-62.6 M487.5,172c3,0,5.5,2.5,5.5,5.5c0,3-2.5,5.5-5.5,5.5c-3,0-5.5-2.5-5.5-5.5
                C482,174.5,484.5,172,487.5,172z M492.5,202c3,0,5.5,2.5,5.5,5.5c0,3-2.5,5.5-5.5,5.5c-3,0-5.5-2.5-5.5-5.5
                C487,204.5,489.5,202,492.5,202z"/>
            <path id="number_0_dots" class="st9" d="M492.5,205c1.4,0,2.5,1.1,2.5,2.5c0,1.4-1.1,2.5-2.5,2.5c-1.4,0-2.5-1.1-2.5-2.5
                C490,206.1,491.1,205,492.5,205z M487.5,175c1.4,0,2.5,1.1,2.5,2.5c0,1.4-1.1,2.5-2.5,2.5c-1.4,0-2.5-1.1-2.5-2.5
                C485,176.1,486.1,175,487.5,175z M448.1,143.4c1.6,0,2.9,1.3,2.9,2.9c0,1.6-1.3,2.9-2.9,2.9c-1.6,0-2.9-1.3-2.9-2.9
                C445.1,144.7,446.4,143.4,448.1,143.4z M448.1,268.3c1.6,0,2.9,1.3,2.9,2.9c0,1.6-1.3,2.9-2.9,2.9c-1.6,0-2.9-1.3-2.9-2.9
                C445.1,269.6,446.4,268.3,448.1,268.3z"/>
        </g>
    </symbol>

    <!-- Start Social Icons -->

    <symbol id="icon-500px" viewBox="24 16 16 32">
        <g>
        <path d="M22.5,37.4c0,0,0.2,0.5,0.3,0.7c0.5,1.2,1.2,2.3,2.2,3.2c0.9,0.9,2,1.7,3.2,2.2c1.3,0.5,2.6,0.8,4,0.8c1.4,0,2.7-0.3,4-0.8c1.2-0.5,2.3-1.2,3.2-2.2c0.9-0.9,1.7-2,2.2-3.2c0.5-1.3,0.8-2.6,0.8-4c0-1.4-0.3-2.7-0.8-4c-0.5-1.2-1.2-2.3-2.2-3.2s-2-1.7-3.2-2.2c-1.3-0.5-2.6-0.8-4-0.8c-1.4,0-2.8,0.3-4,0.8c-1,0.4-2.7,1.5-3.6,2.5l0,0v-8.4h14c0.5,0,0.5-0.7,0.5-1c0-0.2,0-0.9-0.5-1H23.3c-0.4,0-0.7,0.3-0.7,0.7v11.8c0,0.4,0.5,0.7,0.9,0.7c0.9,0.2,1.1-0.1,1.3-0.4l0,0c0.3-0.5,1.3-1.5,1.3-1.5c1.6-1.6,3.7-2.4,5.9-2.4c2.2,0,4.3,0.9,5.9,2.4c1.6,1.6,2.4,3.6,2.4,5.9c0,2.2-0.9,4.3-2.4,5.9c-1.5,1.5-3.7,2.4-5.9,2.4c-1.5,0-2.9-0.4-4.2-1.2l0-7.1c0-1,0.4-2,1.1-2.8c0.8-0.9,1.9-1.4,3.1-1.4c1.2,0,2.2,0.4,3,1.2c0.8,0.8,1.2,1.8,1.2,3c0,2.4-1.9,4.3-4.3,4.3c-0.5,0-1.3-0.2-1.3-0.2C30.2,38,30,38.7,30,38.9c-0.3,0.9,0.1,1,0.2,1c0.8,0.2,1.3,0.3,1.9,0.3c3.4,0,6.1-2.8,6.1-6.1c0-3.4-2.8-6.1-6.1-6.1c-1.7,0-3.2,0.6-4.4,1.8c-1.1,1.1-1.8,2.6-1.8,4l0,0c0,0.2,0,4.5,0,5.9l0,0c-0.6-0.7-1.3-1.8-1.7-2.9c-0.2-0.4-0.5-0.4-1-0.2C23,36.7,22.4,36.9,22.5,37.4L22.5,37.4z M29.7,35.7c0,0.2,0.2,0.4,0.3,0.5l0,0c0.2,0.2,0.4,0.3,0.5,0.3c0.1,0,0.2-0.1,0.3-0.1c0.1-0.1,1-1.1,1.1-1.1l1.1,1.1c0.1,0.1,0.2,0.2,0.3,0.2c0.2,0,0.4-0.1,0.6-0.3c0.5-0.5,0.2-0.7,0.1-0.8L33,34.3l1.1-1.1c0.2-0.3,0-0.6-0.2-0.8c-0.3-0.3-0.6-0.4-0.8-0.2L32,33.3l-1.1-1.1c-0.1-0.1-0.1-0.1-0.2-0.1c-0.2,0-0.3,0.1-0.5,0.3c-0.4,0.3-0.4,0.6-0.2,0.8l1.1,1.1l-1.1,1.1C29.8,35.5,29.7,35.6,29.7,35.7z M32.2,20.3c-1.8,0-3.8,0.4-5.2,1c-0.2,0.1-0.2,0.2-0.3,0.4c0,0.2,0,0.4,0.1,0.7c0.1,0.2,0.3,0.8,0.8,0.6c1.5-0.6,3.1-0.9,4.5-0.9c1.7,0,3.3,0.3,4.8,1c1.2,0.5,2.3,1.2,3.6,2.3c0.1,0.1,0.2,0.1,0.3,0.1c0.2,0,0.5-0.2,0.7-0.5c0.3-0.4,0.6-0.7,0.2-1c-1.2-1.1-2.5-2-4.1-2.6C36,20.7,34.1,20.3,32.2,20.3z M42,42.8L42,42.8c-0.2-0.2-0.4-0.3-0.6-0.4c-0.2,0-0.3,0-0.4,0.1l-0.1,0.1c-1.1,1.1-2.4,2-3.9,2.6c-1.5,0.6-3.1,1-4.8,1c-1.7,0-3.3-0.3-4.8-1c-1.5-0.6-2.8-1.5-3.9-2.6c-1.2-1.2-2.1-2.5-2.6-3.9c-0.6-1.4-0.7-2.4-0.8-2.8c0,0,0-0.1,0-0.1c-0.1-0.4-0.4-0.4-1-0.3c-0.2,0-0.9,0.1-0.8,0.6l0,0c0.2,1.1,0.5,2.2,0.9,3.3c0.7,1.7,1.7,3.2,3,4.5c1.3,1.3,2.8,2.3,4.5,3c1.7,0.7,3.6,1.1,5.5,1.1c1.9,0,3.7-0.4,5.5-1.1c1.7-0.7,3.2-1.7,4.5-3c0,0,0.1-0.1,0.1-0.1C42.5,43.6,42.6,43.3,42,42.8z"/>
        </g>
    </symbol>

    <symbol id="icon-bandsintown" viewBox="24 16 16 32">
        <g>
            <path d="M25.8,39.3h13.4v1.1H24.7V18h-5.6v28h25.8V33.7h-19V39.3z M31.4,24.7h-5.6v7.8h5.6V24.7z M38.2,24.7h-5.6v7.8h5.6V24.7z M39.3,18v14.6h5.6V18H39.3z"/>
        </g>
    </symbol>

    <symbol id="icon-behance" viewBox="24 16 16 32">
        <g>
            <path d="M29.1,31c0.8-0.4,1.5-0.9,1.9-1.5c0.4-0.6,0.6-1.4,0.6-2.3c0-0.9-0.1-1.6-0.4-2.2 c-0.3-0.6-0.7-1.1-1.2-1.4c-0.5-0.4-1.1-0.6-1.9-0.8c-0.7-0.2-1.5-0.2-2.4-0.2H17v18.5h8.9c0.8,0,1.6-0.1,2.4-0.3 c0.8-0.2,1.5-0.5,2.1-1c0.6-0.4,1.1-1,1.5-1.7c0.4-0.7,0.5-1.5,0.5-2.4c0-1.2-0.3-2.1-0.8-3C31.1,31.9,30.2,31.3,29.1,31z  M21.1,25.7h3.8c0.4,0,0.7,0,1,0.1c0.3,0.1,0.6,0.2,0.9,0.3c0.3,0.2,0.5,0.4,0.6,0.6c0.2,0.3,0.2,0.6,0.2,1.1c0,0.8-0.2,1.3-0.7,1.7 c-0.5,0.3-1.1,0.5-1.8,0.5h-4.1V25.7z M28.2,36.7c-0.2,0.3-0.4,0.6-0.7,0.7c-0.3,0.2-0.6,0.3-1,0.4c-0.4,0.1-0.7,0.1-1.1,0.1h-4.3 v-5.1h4.4c0.9,0,1.6,0.2,2.1,0.6c0.5,0.4,0.8,1.1,0.8,2C28.4,36,28.3,36.4,28.2,36.7z M46.7,32.3c-0.2-0.9-0.6-1.8-1.2-2.5 C45,29,44.3,28.4,43.5,28c-0.8-0.4-1.8-0.7-3-0.7c-1,0-1.9,0.2-2.8,0.5c-0.8,0.4-1.6,0.9-2.2,1.5c-0.6,0.6-1.1,1.4-1.4,2.2 c-0.3,0.9-0.5,1.8-0.5,2.8c0,1,0.2,2,0.5,2.8c0.3,0.9,0.8,1.6,1.4,2.2c0.6,0.6,1.3,1.1,2.2,1.4c0.9,0.3,1.8,0.5,2.9,0.5 c1.5,0,2.8-0.3,3.9-1c1.1-0.7,1.9-1.8,2.4-3.4h-3.2c-0.1,0.4-0.4,0.8-1,1.2c-0.5,0.4-1.2,0.6-1.9,0.6c-1,0-1.8-0.3-2.4-0.8 c-0.6-0.5-0.9-1.5-0.9-2.6H47C47,34.2,47,33.2,46.7,32.3z M37.3,32.9c0-0.3,0.1-0.6,0.2-0.9c0.1-0.3,0.3-0.6,0.5-0.9 c0.2-0.3,0.5-0.5,0.9-0.7c0.4-0.2,0.9-0.3,1.5-0.3c0.9,0,1.6,0.3,2.1,0.7c0.4,0.5,0.8,1.2,0.8,2.1H37.3z M44.1,23.8h-7.5v1.8h7.5 V23.8z"/>
        </g>
    </symbol>

    <symbol id="icon-chownow" viewBox="24 16 16 32">
        <g>
          <path d="M32,16c-7.656,0-13.885,6.229-13.885,13.885c0,10.099,11.459,16.756,11.959,17.256       c0,0,1.167,0.859,1.866,0.859c0.458,0,1.696-0.859,1.696-0.859c0.5-0.5,12.248-7.157,12.248-17.256C45.885,22.229,39.656,16,32,16z        M32.083,39.435c-5.354,0-9.694-4.34-9.694-9.694c0-5.354,4.34-9.693,9.694-9.693c5.354,0,9.693,4.34,9.693,9.693       C41.776,35.095,37.437,39.435,32.083,39.435z M27.574,25.265c0.007,0.007,0.012,0.015,0.02,0.023l2.587,2.347l1.039-1.076       l-2.329-2.568c-0.007-0.007-0.015-0.013-0.022-0.019c-0.005-0.005-0.008-0.011-0.013-0.016c-0.358-0.358-0.939-0.358-1.297,0       c-0.358,0.358-0.358,0.939,0,1.296C27.563,25.257,27.569,25.261,27.574,25.265z M38.707,32.712l0.011,0.01       c0,0-0.735-2.119-2.624-3.011c-0.218-0.113-0.436-0.193-0.65-0.24c-0.035-0.01-0.096-0.021-0.096-0.021       c-0.225-0.041-0.656-0.02-0.656-0.02s-0.658,0.118-1.038-0.26l-0.687-0.747l3.366-3.108c0.007-0.007,0.012-0.015,0.019-0.022       c0.005-0.005,0.011-0.009,0.017-0.014c0.358-0.358,0.358-0.939-0.001-1.297c-0.358-0.358-0.939-0.358-1.296,0       c-0.005,0.005-0.008,0.011-0.013,0.016c-0.007,0.007-0.015,0.012-0.023,0.019l-3.066,3.321l-0.985,1.067l-0.95,1.029       c-0.378,0.385-1.006,0.234-1.006,0.234c-0.763-0.159-1.644,0.103-2.419,0.878c-1.18,1.18-1.788,3.217-0.906,4.099       c0.882,0.881,2.919,0.274,4.099-0.906c0.775-0.775,1.037-1.656,0.878-2.419c0,0-0.15-0.619,0.227-0.998l1.078-0.995l0.778,0.715       c0.386,0.379,0.268,1.044,0.268,1.044c-0.028,0.208,0.015,0.645,0.015,0.645c0.001,0.003,0.002,0.006,0.003,0.009       c0.049,0.272,0.151,0.549,0.306,0.826c0.912,1.828,2.972,2.542,2.972,2.542v0c0.178,0.068,0.356,0.122,0.531,0.163       c0.009,0.002,0.093,0.014,0.154-0.047c0.053-0.053,0.059-0.131,0.025-0.193l-2.508-2.753l0.001-0.001       c-0.08-0.097-0.075-0.24,0.015-0.33c0.091-0.09,0.233-0.095,0.33-0.015l0.001-0.001c0.108,0.09,1.921,1.744,2.81,2.472       c0.005,0.002,0.013,0.002,0.019,0.003c0.084,0.035,0.185,0.019,0.254-0.049c0.07-0.07,0.084-0.173,0.046-0.258       c-0.004-0.01-0.006-0.021-0.013-0.032c-0.726-0.888-2.374-2.681-2.463-2.788l0.001-0.001c-0.08-0.097-0.075-0.24,0.015-0.33       c0.091-0.09,0.233-0.095,0.331-0.015v-0.001l2.724,2.482c0.065,0.059,0.164,0.061,0.227-0.002c0.048-0.048,0.05-0.111,0.049-0.141       c-0.004-0.021-0.01-0.044-0.015-0.068C38.823,33.041,38.771,32.877,38.707,32.712z"/>
        </g>
    </symbol>

    <symbol id="icon-codepen" viewBox="24 16 16 32">
        <g>
            <path d="M19.7,36.9l10.9,7.2v-6.5l-6-4L19.7,36.9z M18.7,29.8v4.4l3.4-2.2L18.7,29.8z M30.6,26.4v-6.5 l-10.9,7.2l4.9,3.2L30.6,26.4z M44.3,27.1l-10.9-7.2v6.5l6,4L44.3,27.1z M32,28.8L27.1,32l4.9,3.2l4.9-3.2L32,28.8z M48,37 c0,0.5-0.2,0.9-0.6,1.1l-14.6,9.6c-0.5,0.3-1,0.3-1.5,0l-14.6-9.6C16.2,37.9,16,37.4,16,37V27c0-0.5,0.2-0.9,0.6-1.1l14.6-9.6 c0.5-0.3,1-0.3,1.5,0l14.6,9.6c0.4,0.3,0.6,0.7,0.6,1.1V37z M33.4,37.6v6.5l10.9-7.2l-4.9-3.2L33.4,37.6z M45.3,34.2v-4.4L41.9,32 L45.3,34.2z"/>
        </g>
    </symbol>

    <symbol id="icon-dribbble" viewBox="24 16 16 32">
        <g>
            <path d="M32,48c-8.8,0-16-7.2-16-16s7.2-16,16-16 s16,7.2,16,16S40.8,48,32,48z M45.5,34.2C45,34,41.3,32.9,37,33.6c1.8,4.9,2.5,8.9,2.7,9.7C42.7,41.3,44.9,38,45.5,34.2z M37.3,44.6 c-0.2-1.2-1-5.4-2.9-10.4c0,0-0.1,0-0.1,0c-7.7,2.7-10.5,8-10.7,8.5c2.3,1.8,5.2,2.9,8.4,2.9C33.9,45.7,35.7,45.3,37.3,44.6z  M21.8,41.2c0.3-0.5,4.1-6.7,11.1-9c0.2-0.1,0.4-0.1,0.5-0.2c-0.3-0.8-0.7-1.6-1.1-2.3c-6.8,2-13.4,2-14,1.9c0,0.1,0,0.3,0,0.4 C18.3,35.5,19.7,38.7,21.8,41.2z M18.6,29.2c0.6,0,6.2,0,12.6-1.7c-2.3-4-4.7-7.4-5.1-7.9C22.4,21.5,19.5,25,18.6,29.2z M28.8,18.7 c0.4,0.5,2.9,3.9,5.1,8c4.9-1.8,6.9-4.6,7.2-4.9c-2.4-2.1-5.6-3.4-9.1-3.4C30.9,18.4,29.8,18.5,28.8,18.7z M42.6,23.4 c-0.3,0.4-2.6,3.3-7.6,5.4c0.3,0.7,0.6,1.3,0.9,2c0.1,0.2,0.2,0.5,0.3,0.7c4.5-0.6,9.1,0.3,9.5,0.4C45.6,28.7,44.5,25.7,42.6,23.4z" />
        </g>
    </symbol>

    <symbol id="icon-dropbox" viewBox="24 16 16 32">
        <g>
            <path d="M25.4,17.1L16,23.3l6.5,5.2l9.5-5.9L25.4,17.1z M16,33.7l9.4,6.1l6.6-5.5l-9.5-5.9L16,33.7z  M32,34.3l6.6,5.5l9.4-6.1l-6.5-5.2L32,34.3z M48,23.3l-9.4-6.1L32,22.6l9.5,5.9L48,23.3z M32,35.5L25.4,41l-2.8-1.8v2.1l9.4,5.7 l9.4-5.7v-2.1L38.6,41L32,35.5z"/>
        </g>
    </symbol>

    <symbol id="icon-email" viewBox="24 16 16 32">
        <g>
            <path d="M17,22v20h30V22H17z M41.1,25L32,32.1L22.9,25H41.1z M20,39V26.6l12,9.3l12-9.3V39H20z"/>
        </g>
    </symbol>

   <symbol id="icon-facebook" viewBox="24 16 16 32">
	<g transform="translate(16.983887, 16.983887)">
	    <path d="M28.2916266,0 L1.65188365,0 C0.739854232,0 0,0.739854232 0,1.65188365 L0,28.2916266 C0,29.2049036 0.739854232,29.9435102 1.65188365,29.9435102 L15.9923298,29.9435102 L15.9923298,18.3478859 L12.0884446,18.3478859 L12.0884446,13.8301588 L15.9923298,13.8301588 L15.9923298,10.492705 C15.9923298,6.62624929 18.3553718,4.52271769 21.8051137,4.52271769 C23.458245,4.52271769 24.8793141,4.64373938 25.2935326,4.69863581 L25.2935326,8.7410097 L22.8968042,8.7410097 C21.0253348,8.7410097 20.6610221,9.64056265 20.6610221,10.9505912 L20.6610221,13.8339017 L25.1325863,13.8339017 L24.5524307,18.3628577 L20.6610221,18.3628577 L20.6610221,29.9435102 L28.2903789,29.9435102 C29.2049036,29.9435102 29.9435102,29.2049036 29.9435102,28.2916266 L29.9435102,1.65188365 C29.9435102,0.739854232 29.2049036,0 28.2916266,0" id="Shape"></path>
	</g>
    </symbol>

    <symbol id="icon-flickr" viewBox="24 16 16 32">
        <g>
            <path d="M32,16c-8.8,0-16,7.2-16,16s7.2,16,16,16s16-7.2,16-16S40.8,16,32,16z M26,37c-2.8,0-5-2.2-5-5 s2.2-5,5-5s5,2.2,5,5S28.8,37,26,37z M38,37c-2.8,0-5-2.2-5-5s2.2-5,5-5s5,2.2,5,5S40.8,37,38,37z"/>
        </g>
    </symbol>

    <symbol id="icon-foursquare" viewBox="24 16 16 32">
        <g>
            <path d="M41.5,17c0,0-14.3,0-16.5,0c-2.3,0-3,1.7-3,2.8c0,1.1,0,26.3,0,26.3c0,1.2,0.7,1.7,1,1.8 c0.4,0.1,1.4,0.3,2-0.4c0,0,7.8-9.1,7.9-9.2c0.2-0.2,0.2-0.2,0.4-0.2c0.4,0,3.4,0,5.1,0c2.1,0,2.5-1.5,2.7-2.4 c0.2-0.7,2.3-11.3,2.9-14.7C44.6,18.4,43.9,17,41.5,17z M41.1,35.7c0.2-0.7,2.3-11.3,2.9-14.7 M40.5,21.5l-0.7,3.6 c-0.1,0.4-0.6,0.8-1,0.8c-0.5,0-6.4,0-6.4,0c-0.7,0-1.2,0.5-1.2,1.2v0.8c0,0.7,0.5,1.2,1.2,1.2c0,0,5,0,5.5,0c0.5,0,1,0.6,0.9,1.1 c-0.1,0.5-0.6,3.3-0.7,3.6c-0.1,0.3-0.4,0.8-1,0.8c-0.5,0-4.5,0-4.5,0c-0.8,0-1.1,0.1-1.6,0.8c-0.5,0.7-5.4,6.5-5.4,6.5 c0,0.1-0.1,0-0.1,0V21.4c0-0.5,0.4-1,1-1c0,0,12.8,0,13.3,0C40.2,20.4,40.6,20.9,40.5,21.5z"/>
        </g>
    </symbol>

    <symbol id="icon-github" viewBox="24 16 16 32">
        <g>
            <path d="M32,16c-8.8,0-16,7.2-16,16c0,7.1,4.6,13.1,10.9,15.2 c0.8,0.1,1.1-0.3,1.1-0.8c0-0.4,0-1.4,0-2.7c-4.5,1-5.4-2.1-5.4-2.1c-0.7-1.8-1.8-2.3-1.8-2.3c-1.5-1,0.1-1,0.1-1 c1.6,0.1,2.5,1.6,2.5,1.6c1.4,2.4,3.7,1.7,4.7,1.3c0.1-1,0.6-1.7,1-2.1c-3.6-0.4-7.3-1.8-7.3-7.9c0-1.7,0.6-3.2,1.6-4.3 c-0.2-0.4-0.7-2,0.2-4.2c0,0,1.3-0.4,4.4,1.6c1.3-0.4,2.6-0.5,4-0.5c1.4,0,2.7,0.2,4,0.5c3.1-2.1,4.4-1.6,4.4-1.6 c0.9,2.2,0.3,3.8,0.2,4.2c1,1.1,1.6,2.5,1.6,4.3c0,6.1-3.7,7.5-7.3,7.9c0.6,0.5,1.1,1.5,1.1,3c0,2.1,0,3.9,0,4.4 c0,0.4,0.3,0.9,1.1,0.8C43.4,45.1,48,39.1,48,32C48,23.2,40.8,16,32,16z"/>
        </g>
    </symbol>

    <symbol id="icon-googleplay" viewBox="24 16 16 32">
        <g>
            <path d="M24.4,45.6l16-8.8l-3.6-3.6L24.4,45.6z M22.2,18.5c-0.1,0.2-0.2,0.5-0.2,0.9v25.1 c0,0.4,0.1,0.6,0.2,0.9L35.6,32L22.2,18.5z M47.1,30.8L42.1,28L38.1,32l4,4l5-2.8C48.3,32.5,48.3,31.4,47.1,30.8z M40.4,27.1 l-15.9-8.8l12.3,12.3L40.4,27.1z"/>
        </g>
    </symbol>

    <symbol id="icon-google" viewBox="24 16 16 32">
        <g>
            <path d="M26.182,30.545v3.491h5.775c-0.233,1.498-1.745,4.393-5.775,4.393c-3.476,0-6.313-2.88-6.313-6.429c0-3.549,2.836-6.429,6.313-6.429c1.978,0,3.302,0.844,4.058,1.571l2.764-2.662c-1.775-1.658-4.073-2.662-6.822-2.662C20.553,21.818,16,26.371,16,32c0,5.629,4.553,10.182,10.182,10.182c5.876,0,9.775-4.131,9.775-9.949c0-0.669-0.073-1.178-0.16-1.687H26.182z M45.091,30.545v-2.909h-2.909v2.909h-2.909v2.909h2.909v2.909h2.909v-2.909H48v-2.909H45.091z"/>
        </g>
    </symbol>

    <symbol id="icon-google-mask" viewbox="24 16 16 32">
        <g class="svg-mask">
            <path d="M0,0v64h64V0H0z M26.182,42.182C20.553,42.182,16,37.629,16,32c0-5.629,4.553-10.182,10.182-10.182c2.749,0,5.047,1.004,6.822,2.662l-2.764,2.662c-0.756-0.727-2.08-1.571-4.058-1.571c-3.476,0-6.313,2.88-6.313,6.429c0,3.549,2.836,6.429,6.313,6.429c4.029,0,5.542-2.895,5.775-4.393h-5.775v-3.491h9.615c0.087,0.509,0.16,1.018,0.16,1.687C35.956,38.051,32.058,42.182,26.182,42.182z M48,33.454h-2.909v2.909h-2.909v-2.909h-2.909v-2.909h2.909v-2.909h2.909v2.909H48V33.454z"/>
        </g>
    </symbol>

    <symbol id="icon-instagram" viewBox="24 16 16 32">
        <g>
            <path d="M46.91,25.816c-0.073-1.597-0.326-2.687-0.697-3.641c-0.383-0.986-0.896-1.823-1.73-2.657c-0.834-0.834-1.67-1.347-2.657-1.73c-0.954-0.371-2.045-0.624-3.641-0.697C36.585,17.017,36.074,17,32,17s-4.585,0.017-6.184,0.09c-1.597,0.073-2.687,0.326-3.641,0.697c-0.986,0.383-1.823,0.896-2.657,1.73c-0.834,0.834-1.347,1.67-1.73,2.657c-0.371,0.954-0.624,2.045-0.697,3.641C17.017,27.415,17,27.926,17,32c0,4.074,0.017,4.585,0.09,6.184c0.073,1.597,0.326,2.687,0.697,3.641c0.383,0.986,0.896,1.823,1.73,2.657c0.834,0.834,1.67,1.347,2.657,1.73c0.954,0.371,2.045,0.624,3.641,0.697C27.415,46.983,27.926,47,32,47s4.585-0.017,6.184-0.09c1.597-0.073,2.687-0.326,3.641-0.697c0.986-0.383,1.823-0.896,2.657-1.73c0.834-0.834,1.347-1.67,1.73-2.657c0.371-0.954,0.624-2.045,0.697-3.641C46.983,36.585,47,36.074,47,32S46.983,27.415,46.91,25.816z M44.21,38.061c-0.067,1.462-0.311,2.257-0.516,2.785c-0.272,0.7-0.597,1.2-1.122,1.725c-0.525,0.525-1.025,0.85-1.725,1.122c-0.529,0.205-1.323,0.45-2.785,0.516c-1.581,0.072-2.056,0.087-6.061,0.087s-4.48-0.015-6.061-0.087c-1.462-0.067-2.257-0.311-2.785-0.516c-0.7-0.272-1.2-0.597-1.725-1.122c-0.525-0.525-0.85-1.025-1.122-1.725c-0.205-0.529-0.45-1.323-0.516-2.785c-0.072-1.582-0.087-2.056-0.087-6.061s0.015-4.48,0.087-6.061c0.067-1.462,0.311-2.257,0.516-2.785c0.272-0.7,0.597-1.2,1.122-1.725c0.525-0.525,1.025-0.85,1.725-1.122c0.529-0.205,1.323-0.45,2.785-0.516c1.582-0.072,2.056-0.087,6.061-0.087s4.48,0.015,6.061,0.087c1.462,0.067,2.257,0.311,2.785,0.516c0.7,0.272,1.2,0.597,1.725,1.122c0.525,0.525,0.85,1.025,1.122,1.725c0.205,0.529,0.45,1.323,0.516,2.785c0.072,1.582,0.087,2.056,0.087,6.061S44.282,36.48,44.21,38.061z M32,24.297c-4.254,0-7.703,3.449-7.703,7.703c0,4.254,3.449,7.703,7.703,7.703c4.254,0,7.703-3.449,7.703-7.703C39.703,27.746,36.254,24.297,32,24.297z M32,37c-2.761,0-5-2.239-5-5c0-2.761,2.239-5,5-5s5,2.239,5,5C37,34.761,34.761,37,32,37z M40.007,22.193c-0.994,0-1.8,0.806-1.8,1.8c0,0.994,0.806,1.8,1.8,1.8c0.994,0,1.8-0.806,1.8-1.8C41.807,22.999,41.001,22.193,40.007,22.193z"/>
        </g>
    </symbol>

    <symbol id="icon-itunes" viewBox="24 16 16 32">
        <g>
            <path d="M41.784,28.836c0,3.5,0.002,7-0.002,10.499c0,0.767-0.105,1.519-0.446,2.217c-0.53,1.086-1.399,1.768-2.55,2.095c-0.642,0.183-1.297,0.288-1.965,0.318c-1.749,0.083-3.261-1.103-3.574-2.823c-0.26-1.419,0.419-2.984,1.91-3.715c0.595-0.294,1.23-0.458,1.871-0.596c0.695-0.15,1.393-0.282,2.084-0.441c0.504-0.116,0.84-0.424,0.939-0.948c0.023-0.116,0.033-0.236,0.033-0.355c0.002-3.336,0.002-6.67-0.002-10.005c0-0.114-0.019-0.23-0.047-0.34c-0.072-0.277-0.274-0.446-0.559-0.43c-0.294,0.017-0.584,0.064-0.873,0.122c-1.397,0.275-2.793,0.559-4.189,0.84c-1.425,0.286-2.851,0.576-4.278,0.864c-0.842,0.171-1.684,0.34-2.525,0.51c-0.03,0.006-0.059,0.016-0.088,0.023c-0.509,0.141-0.693,0.374-0.717,0.9c-0.003,0.08-0.002,0.16-0.002,0.241c-0.002,4.782,0,9.565-0.003,14.345c0,0.773-0.086,1.537-0.396,2.255c-0.512,1.18-1.416,1.914-2.636,2.269c-0.645,0.186-1.307,0.293-1.976,0.316c-1.762,0.066-3.225-1.105-3.527-2.838c-0.261-1.494,0.422-3.098,2.119-3.816c0.656-0.275,1.344-0.427,2.036-0.571c0.527-0.111,1.056-0.211,1.582-0.324c0.703-0.153,1.07-0.595,1.1-1.313c0.003-0.094,0.002-0.183,0.002-0.277c0-5.44,0-10.882,0.003-16.323c0-0.227,0.023-0.46,0.077-0.681c0.128-0.524,0.502-0.823,1.003-0.953c0.469-0.122,0.947-0.207,1.422-0.304c1.347-0.272,2.694-0.543,4.042-0.814c1.393-0.282,2.784-0.562,4.176-0.843c1.23-0.249,2.46-0.501,3.693-0.743c0.404-0.08,0.814-0.161,1.22-0.194c0.57-0.045,0.961,0.313,1.019,0.886c0.014,0.136,0.022,0.274,0.022,0.412C41.786,21.814,41.786,25.325,41.784,28.836L41.784,28.836z"/>
        </g>
    </symbol>

    <symbol id="icon-linkedin" viewBox="24 16 16 32">
        <g>
            <path d="M20.4,44h5.4V26.6h-5.4V44z M23.1,18c-1.7,0-3.1,1.4-3.1,3.1c0,1.7,1.4,3.1,3.1,3.1 c1.7,0,3.1-1.4,3.1-3.1C26.2,19.4,24.8,18,23.1,18z M39.5,26.2c-2.6,0-4.4,1.4-5.1,2.8h-0.1v-2.4h-5.2V44h5.4v-8.6 c0-2.3,0.4-4.5,3.2-4.5c2.8,0,2.8,2.6,2.8,4.6V44H46v-9.5C46,29.8,45,26.2,39.5,26.2z"/>
        </g>
    </symbol>

    <symbol id="icon-medium" viewBox="24 16 16 32">
        <g>
            <path d="M46.908,23.95c-0.006-0.005-0.011-0.01-0.018-0.014l-0.01-0.005l-9.05-4.525c-0.061-0.031-0.125-0.051-0.19-0.068c-0.082-0.021-0.165-0.034-0.249-0.034c-0.347,0-0.692,0.174-0.878,0.477l-5.21,8.467l6.538,10.625l9.095-14.779C46.966,24.046,46.952,23.985,46.908,23.95z M28.433,35.958L37,40.241L28.433,26.32V35.958zM38.287,40.884l7.052,3.526C46.256,44.869,47,44.548,47,43.693V26.726L38.287,40.884z M26.946,23.964l-8.839-4.419c-0.16-0.08-0.312-0.118-0.449-0.118c-0.387,0-0.659,0.299-0.659,0.802v19.083c0,0.511,0.374,1.116,0.831,1.344l7.785,3.892c0.2,0.1,0.39,0.147,0.561,0.147c0.484,0,0.823-0.374,0.823-1.003V24.051C27,24.014,26.979,23.98,26.946,23.964z"/>
        </g>
    </symbol>

    <symbol id="icon-meetup" viewBox="24 16 16 32">
        <g>
            <path d="M30.8,33.4c0-6.3,1.9-11.9,3.5-15.3c0.5-1.1,0.9-1.4,1.9-1.4c1.3,0,2.9,0.2,4.1,0.4 c1.1,0.2,1.5,1.6,1.7,2.5c1.2,4.5,4.7,18.7,5.5,22.4c0.2,0.8,0.6,2,0.1,2.3c-0.4,0.2-2.5,0.9-3.9,1c-0.6,0.1-1.1-0.6-1.4-1.5 c-1.5-4.6-3.5-11.8-5.2-16.6c0,3.7-0.3,10.8-0.4,12c-0.1,1.7-0.4,3.7-1.8,3.9c-1.1,0.2-2.4,0.4-4,0.4c-1.3,0-1.8-0.9-2.4-1.8 c-1-1.4-3.1-4.8-4.1-6.9c0.3,2.3,0.7,4.7,0.9,5.8c0.1,0.8,0,1.5-0.6,1.9c-1,0.7-3.2,1.4-4.1,1.4c-0.8,0-1.5-0.8-1.6-1.6 c-0.7-3.4-1.2-8-1.1-11.1c0-2.8,0-5.9,0.2-8.3c0-0.7,0.3-1.1,0.9-1.4c1.2-0.5,3-0.6,4.7-0.3c0.8,0.1,1,0.8,1.4,1.4 C26.9,25.5,28.9,29.5,30.8,33.4z"/>
        </g>
    </symbol>

    <symbol id="icon-pinterest" viewBox="24 16 16 32">
        <g>
            <path d="M32,16c-8.8,0-16,7.2-16,16c0,6.6,3.9,12.2,9.6,14.7c0-1.1,0-2.5,0.3-3.7 c0.3-1.3,2.1-8.7,2.1-8.7s-0.5-1-0.5-2.5c0-2.4,1.4-4.1,3.1-4.1c1.5,0,2.2,1.1,2.2,2.4c0,1.5-0.9,3.7-1.4,5.7 c-0.4,1.7,0.9,3.1,2.5,3.1c3,0,5.1-3.9,5.1-8.5c0-3.5-2.4-6.1-6.7-6.1c-4.9,0-7.9,3.6-7.9,7.7c0,1.4,0.4,2.4,1.1,3.1 c0.3,0.3,0.3,0.5,0.2,0.9c-0.1,0.3-0.3,1-0.3,1.3c-0.1,0.4-0.4,0.6-0.8,0.4c-2.2-0.9-3.3-3.4-3.3-6.1c0-4.5,3.8-10,11.4-10 c6.1,0,10.1,4.4,10.1,9.2c0,6.3-3.5,11-8.6,11c-1.7,0-3.4-0.9-3.9-2c0,0-0.9,3.7-1.1,4.4c-0.3,1.2-1,2.5-1.6,3.4 c1.4,0.4,3,0.7,4.5,0.7c8.8,0,16-7.2,16-16C48,23.2,40.8,16,32,16z"/>
        </g>
    </symbol>

    <symbol id="icon-pinterest-mask" viewbox="24 16 16 32">
        <g class="svg-mask">
            <path d="M0,0v64h64V0H0z M32,48c-1.6,0-3.1-0.2-4.5-0.7c0.6-1,1.3-2.2,1.6-3.4c0.2-0.7,1.1-4.4,1.1-4.4 c0.6,1.1,2.2,2,3.9,2c5.1,0,8.6-4.7,8.6-11c0-4.7-4-9.2-10.1-9.2c-7.6,0-11.4,5.5-11.4,10c0,2.8,1,5.2,3.3,6.1 c0.4,0.1,0.7,0,0.8-0.4c0.1-0.3,0.2-1,0.3-1.3c0.1-0.4,0.1-0.5-0.2-0.9c-0.6-0.8-1.1-1.7-1.1-3.1c0-4,3-7.7,7.9-7.7 c4.3,0,6.7,2.6,6.7,6.1c0,4.6-2,8.5-5.1,8.5c-1.7,0-2.9-1.4-2.5-3.1c0.5-2,1.4-4.2,1.4-5.7c0-1.3-0.7-2.4-2.2-2.4 c-1.7,0-3.1,1.8-3.1,4.1c0,1.5,0.5,2.5,0.5,2.5s-1.8,7.4-2.1,8.7c-0.3,1.2-0.3,2.6-0.3,3.7C19.9,44.2,16,38.6,16,32 c0-8.8,7.2-16,16-16c8.8,0,16,7.2,16,16C48,40.8,40.8,48,32,48z"/>
        </g>
    </symbol>

    <symbol id="icon-reddit" viewBox="24 16 16 32">
        <g>
            <path d="M47.8,30.7c0-2.1-1.7-3.8-3.8-3.8c-0.9,0-1.7,0.3-2.4,0.9c-2.3-1.4-5.2-2.4-8.5-2.5l1.7-5.3 l4.6,1.1c0.1,1.6,1.5,3,3.2,3c1.8,0,3.2-1.4,3.2-3.2s-1.4-3.2-3.2-3.2c-1.2,0-2.3,0.7-2.8,1.7l-5.3-1.2c-0.4-0.1-0.9,0.1-1,0.6 l-2.1,6.5c-3.5,0.1-6.7,1-9.1,2.6c-0.7-0.5-1.5-0.9-2.4-0.9c-2.1,0-3.8,1.7-3.8,3.8c0,1.3,0.7,2.5,1.7,3.1c0,0.3-0.1,0.6-0.1,0.9 c0,5.3,6.4,9.6,14.2,9.6s14.2-4.3,14.2-9.6c0-0.3,0-0.6-0.1-0.9C47.2,33.2,47.8,32,47.8,30.7z M42.6,19.4c0.8,0,1.5,0.7,1.5,1.5 c0,0.8-0.7,1.5-1.5,1.5s-1.5-0.7-1.5-1.5C41.1,20,41.8,19.4,42.6,19.4z M17.8,30.7c0-1.2,0.9-2.1,2.1-2.1c0.3,0,0.6,0.1,0.9,0.2 c-1.1,0.9-2,2-2.5,3.2C18.1,31.7,17.8,31.2,17.8,30.7z M32,42.6c-6.9,0-12.5-3.5-12.5-7.9s5.6-7.9,12.5-7.9s12.5,3.5,12.5,7.9 S38.9,42.6,32,42.6z M45.6,32.1c-0.5-1.2-1.4-2.3-2.5-3.2c0.3-0.1,0.6-0.2,0.9-0.2c1.2,0,2.1,0.9,2.1,2.1 C46.2,31.2,45.9,31.7,45.6,32.1z M29.4,33.1c0-1.2-1-2.1-2.1-2.1s-2.1,1-2.1,2.1s1,2.2,2.1,2.2S29.4,34.2,29.4,33.1z M36.7,30.9 c-1.2,0-2.1,1-2.1,2.1s1,2.2,2.1,2.2c1.2,0,2.1-1,2.1-2.2S37.9,30.9,36.7,30.9z M36,38.2c-0.8,0.8-2.1,1.1-4,1.1 c-1.9,0-3.2-0.4-4-1.1c-0.3-0.3-0.9-0.3-1.2,0c-0.3,0.3-0.3,0.9,0,1.2c1.1,1.1,2.8,1.6,5.2,1.6c2.4,0,4.1-0.5,5.2-1.6 c0.3-0.3,0.3-0.9,0-1.2C36.9,37.8,36.3,37.8,36,38.2z"></path>
        </g>
    </symbol>

    <symbol id="icon-smugmug" viewBox="24 16 16 32">
        <g>
            <path d="M25.4,22.9c2.8,0,4.1-1.7,3.9-3.1 c-0.1-1.2-1.3-2.4-3.6-2.4c-1.9,0-3.1,1.4-3.3,2.8C22.3,21.6,23.1,23,25.4,22.9z M39.2,22.6c2.6-0.1,3.8-1.5,3.8-2.8 c0-1.5-1.4-3-3.8-2.8c-1.9,0.2-3,1.5-3.2,2.8C35.9,21.3,36.9,22.7,39.2,22.6z M40.9,28.5c-6.6,0.7-6.9,0.7-19,1 c-5.1,0-4,17.5,6.9,17.5C39.2,47,51.7,27.4,40.9,28.5z M29,43.9c-9.5,0-8.2-11.3-6.6-11.4c11.1-0.4,13.9-0.9,17.8-0.9 C44.3,31.6,36.6,43.9,29,43.9z"/>
        </g>
    </symbol>

    <symbol id="icon-snapchat-ghost" viewBox="0 0 24 24">
        <path d="M5.829 4.533c-.6 1.344-.363 3.752-.267 5.436-.648.359-1.48-.271-1.951-.271-.49 0-1.075.322-1.167.802-.066.346.089.85 1.201 1.289.43.17 1.453.37 1.69.928.333.784-1.71 4.403-4.918 4.931-.251.041-.43.265-.416.519.056.975 2.242 1.357 3.211 1.507.099.134.179.7.306 1.131.057.193.204.424.582.424.493 0 1.312-.38 2.738-.144 1.398.233 2.712 2.215 5.235 2.215 2.345 0 3.744-1.991 5.09-2.215.779-.129 1.448-.088 2.196.058.515.101.977.157 1.124-.349.129-.437.208-.992.305-1.123.96-.149 3.156-.53 3.211-1.505.014-.254-.165-.477-.416-.519-3.154-.52-5.259-4.128-4.918-4.931.236-.557 1.252-.755 1.69-.928.814-.321 1.222-.716 1.213-1.173-.011-.585-.715-.934-1.233-.934-.527 0-1.284.624-1.897.286.096-1.698.332-4.095-.267-5.438-1.135-2.543-3.66-3.829-6.184-3.829-2.508 0-5.014 1.268-6.158 3.833z"/>
    </symbol>

    <symbol id="icon-soundcloud" viewBox="24 16 16 32">
        <g>
            <path d="M43.6,30c-0.6,0-1.2,0.1-1.7,0.3c-0.3-4-3.7-7.1-7.7-7.1c-1,0-2,0.2-2.8,0.5 C31.1,23.9,31,24,31,24.3v13.9c0,0.3,0.2,0.5,0.5,0.5c0,0,12.2,0,12.2,0c2.4,0,4.4-1.9,4.4-4.4C48,31.9,46,30,43.6,30z M27.2,25.1 c-0.7,0-1.2,0.5-1.2,1.1v11.3c0,0.7,0.6,1.2,1.2,1.2c0.7,0,1.2-0.6,1.2-1.2V26.2C28.4,25.6,27.8,25.1,27.2,25.1z M22.2,27.8 c-0.7,0-1.2,0.5-1.2,1.1v8.5c0,0.7,0.6,1.2,1.2,1.2s1.2-0.6,1.2-1.2V29C23.4,28.3,22.9,27.8,22.2,27.8z M17.2,30.2 c-0.7,0-1.2,0.5-1.2,1.1v4.9c0,0.7,0.6,1.2,1.2,1.2c0.7,0,1.2-0.6,1.2-1.2v-4.9C18.5,30.7,17.9,30.2,17.2,30.2z"/>
        </g>
    </symbol>

    <symbol id="icon-spotify" viewBox="24 16 16 32">
        <g>
            <path d="M32,16c-8.8,0-16,7.2-16,16c0,8.8,7.2,16,16,16c8.8,0,16-7.2,16-16C48,23.2,40.8,16,32,16 M39.3,39.1c-0.3,0.5-0.9,0.6-1.4,0.3c-3.8-2.3-8.5-2.8-14.1-1.5c-0.5,0.1-1.1-0.2-1.2-0.7c-0.1-0.5,0.2-1.1,0.8-1.2 c6.1-1.4,11.3-0.8,15.5,1.8C39.5,38,39.6,38.6,39.3,39.1 M41.3,34.7c-0.4,0.6-1.1,0.8-1.7,0.4c-4.3-2.6-10.9-3.4-15.9-1.9 c-0.7,0.2-1.4-0.2-1.6-0.8c-0.2-0.7,0.2-1.4,0.8-1.6c5.8-1.8,13-0.9,18,2.1C41.5,33.4,41.7,34.1,41.3,34.7 M41.5,30.2 c-5.2-3.1-13.7-3.3-18.6-1.9c-0.8,0.2-1.6-0.2-1.9-1c-0.2-0.8,0.2-1.6,1-1.9c5.7-1.7,15-1.4,21,2.1c0.7,0.4,0.9,1.3,0.5,2.1 C43.1,30.4,42.2,30.6,41.5,30.2"/>
        </g>
    </symbol>

    <symbol id="icon-stumbleupon" viewBox="24 16 16 32">
        <g>
            <path d="M42.5,30.3v4.9c0,0.9-0.8,1.7-1.7,1.7s-1.7-0.8-1.7-1.7v-4.9l-2.7,1.1l-2.7-1.1v4.9 c0,4,3.2,7.2,7.2,7.2s7.2-3.2,7.2-7.2v-4.9H42.5z M33.7,26.9l2.7,1.1l2.7-1.1v-2.1c0-4-3.2-7.2-7.2-7.2s-7.2,3.2-7.2,7.2v10.4 c0,0.9-0.8,1.7-1.7,1.7s-1.7-0.8-1.7-1.7v-4.9H16v4.9c0,4,3.2,7.2,7.2,7.2s7.2-3.2,7.2-7.2V24.8c0-0.9,0.8-1.7,1.7-1.7 s1.7,0.8,1.7,1.7V26.9z"></path>
        </g>
    </symbol>

    <symbol id="icon-tumblr" viewBox="24 16 16 32">
        <g>
            <path d="M39.2,41c-0.6,0.3-1.6,0.5-2.4,0.5c-2.4,0.1-2.9-1.7-2.9-3v-9.3h6v-4.5h-6V17c0,0-4.3,0-4.4,0 c-0.1,0-0.2,0.1-0.2,0.2c-0.3,2.3-1.4,6.4-5.9,8.1v3.9h3V39c0,3.4,2.5,8.1,9,8c2.2,0,4.7-1,5.2-1.8L39.2,41z"/>
        </g>
    </symbol>

    <symbol id="icon-twitch" viewBox="24 16 16 32">
        <g>
            <path d="M40,25.6h-2.5v7.6H40V25.6z M33,25.6h-2.5v7.6H33V25.6z M20.9,18L19,23.1v20.4h7v3.8h3.8l3.8-3.8h5.7l7.6-7.6V18H20.9z M44.5,34.5L40,39h-7l-3.8,3.8V39h-5.7V20.5h21V34.5z"/>
        </g>
    </symbol>

    <symbol id="icon-twitter" viewBox="24 16 16 32">
        <g>
            <path d="M48,22.1c-1.2,0.5-2.4,0.9-3.8,1c1.4-0.8,2.4-2.1,2.9-3.6c-1.3,0.8-2.7,1.3-4.2,1.6 C41.7,19.8,40,19,38.2,19c-3.6,0-6.6,2.9-6.6,6.6c0,0.5,0.1,1,0.2,1.5c-5.5-0.3-10.3-2.9-13.5-6.9c-0.6,1-0.9,2.1-0.9,3.3 c0,2.3,1.2,4.3,2.9,5.5c-1.1,0-2.1-0.3-3-0.8c0,0,0,0.1,0,0.1c0,3.2,2.3,5.8,5.3,6.4c-0.6,0.1-1.1,0.2-1.7,0.2c-0.4,0-0.8,0-1.2-0.1 c0.8,2.6,3.3,4.5,6.1,4.6c-2.2,1.8-5.1,2.8-8.2,2.8c-0.5,0-1.1,0-1.6-0.1c2.9,1.9,6.4,2.9,10.1,2.9c12.1,0,18.7-10,18.7-18.7 c0-0.3,0-0.6,0-0.8C46,24.5,47.1,23.4,48,22.1z"/>
        </g>
    </symbol>

    <symbol id="icon-twitter-mask" viewbox="24 16 16 32">
        <g class="svg-mask">
            <path d="M0,0v64h64V0H0z M44.7,25.5c0,0.3,0,0.6,0,0.8C44.7,35,38.1,45,26.1,45c-3.7,0-7.2-1.1-10.1-2.9 c0.5,0.1,1,0.1,1.6,0.1c3.1,0,5.9-1,8.2-2.8c-2.9-0.1-5.3-2-6.1-4.6c0.4,0.1,0.8,0.1,1.2,0.1c0.6,0,1.2-0.1,1.7-0.2 c-3-0.6-5.3-3.3-5.3-6.4c0,0,0-0.1,0-0.1c0.9,0.5,1.9,0.8,3,0.8c-1.8-1.2-2.9-3.2-2.9-5.5c0-1.2,0.3-2.3,0.9-3.3 c3.2,4,8.1,6.6,13.5,6.9c-0.1-0.5-0.2-1-0.2-1.5c0-3.6,2.9-6.6,6.6-6.6c1.9,0,3.6,0.8,4.8,2.1c1.5-0.3,2.9-0.8,4.2-1.6 c-0.5,1.5-1.5,2.8-2.9,3.6c1.3-0.2,2.6-0.5,3.8-1C47.1,23.4,46,24.5,44.7,25.5z"/>
        </g>
    </symbol>

    <symbol id="icon-vevo" viewBox="24 16 16 32">
        <g>
            <path d="M43,21c-4.5,0-5.4,2.7-6.8,4.6c0,0-3.7,5.6-5.1,7.7l-3-12.3H20l5.1,20.6c1.1,3.7,4.1,3.4,4.1,3.4 c2.1,0,3.6-1.1,5-3.1L48,21C48,21,43.2,21,43,21z"/>
        </g>
    </symbol>

    <symbol id="icon-vimeo" viewBox="24 16 16 32">
        <g>
            <path d="M47,25c-0.1,2.9-2.2,6.9-6.1,12c-4.1,5.3-7.5,8-10.4,8c-1.7,0-3.2-1.6-4.4-4.8 c-0.8-3-1.6-5.9-2.4-8.9c-0.9-3.2-1.9-4.8-2.9-4.8c-0.2,0-1,0.5-2.4,1.4L17,26c1.5-1.3,2.9-2.6,4.4-3.9c2-1.7,3.5-2.6,4.4-2.7 c2.3-0.2,3.8,1.4,4.3,4.8c0.6,3.7,1,6,1.2,6.9c0.7,3.1,1.4,4.6,2.2,4.6c0.6,0,1.6-1,2.8-3c1.3-2,1.9-3.5,2-4.5 c0.2-1.7-0.5-2.6-2-2.6c-0.7,0-1.5,0.2-2.2,0.5c1.5-4.8,4.3-7.2,8.4-7C45.7,19.1,47.2,21.1,47,25z"/>
        </g>
    </symbol>

    <symbol id="icon-vine" viewBox="24 16 16 32">
        <g>
            <path d="M45.2,31.9c-0.8,0.2-1.5,0.3-2.2,0.3c-3.8,0-6.7-2.6-6.7-7.2c0-2.3,0.9-3.4,2.1-3.4 c1.2,0,2,1.1,2,3.2c0,1.2-0.3,2.5-0.6,3.3c0,0,1.2,2,4.4,1.4c0.7-1.5,1-3.5,1-5.2c0-4.6-2.3-7.3-6.6-7.3c-4.4,0-7,3.4-7,7.9 c0,4.4,2.1,8.2,5.5,10c-1.4,2.9-3.3,5.4-5.2,7.3c-3.5-4.2-6.6-9.8-7.9-20.7h-5.1c2.4,18.1,9.4,23.9,11.2,25c1.1,0.6,2,0.6,2.9,0.1 c1.5-0.9,6-5.4,8.6-10.7c1.1,0,2.3-0.1,3.6-0.4V31.9z"/>
        </g>
    </symbol>

    <symbol id="icon-vsco" viewbox="24 16 16 32">
        <g>
            <path d="M32,16c-8.823,0-16,7.178-16,16s7.177,16,16,16s16-7.178,16-16S40.823,16,32,16z M46.118,32c0,0.936-0.096,1.849-0.271,2.735l-3.654-0.979c0.098-0.572,0.161-1.156,0.161-1.756c0-0.6-0.062-1.184-0.161-1.756l3.654-0.979C46.021,30.151,46.118,31.064,46.118,32z M17.882,32c0-0.936,0.096-1.849,0.271-2.734l3.654,0.979c-0.098,0.572-0.161,1.156-0.161,1.755c0,0.599,0.062,1.184,0.161,1.755l-3.654,0.979C17.979,33.849,17.882,32.936,17.882,32zM25.379,24.05l-2.661-2.661c1.37-1.2,2.971-2.138,4.73-2.74l0.977,3.647C27.308,22.71,26.277,23.301,25.379,24.05z M24.048,25.381c-0.749,0.898-1.339,1.928-1.752,3.044l-3.647-0.977c0.601-1.758,1.538-3.358,2.738-4.728L24.048,25.381z M22.297,35.575c0.413,1.117,1.004,2.147,1.753,3.045l-2.661,2.661c-1.2-1.37-2.137-2.97-2.739-4.729L22.297,35.575z M25.38,39.951c0.898,0.749,1.929,1.34,3.045,1.753l-0.977,3.647c-1.759-0.602-3.359-1.539-4.729-2.739L25.38,39.951z M23.529,32c0-4.671,3.8-8.471,8.471-8.471s8.471,3.8,8.471,8.471s-3.8,8.471-8.471,8.471S23.529,36.671,23.529,32z M39.951,25.38l2.661-2.661c1.2,1.37,2.137,2.97,2.738,4.729l-3.647,0.977C41.29,27.308,40.7,26.278,39.951,25.38z M38.62,24.049c-0.898-0.749-1.929-1.34-3.046-1.753l0.977-3.647c1.759,0.601,3.36,1.539,4.73,2.739L38.62,24.049z M38.619,39.952l2.661,2.661c-1.37,1.2-2.97,2.137-4.729,2.738l-0.977-3.647C36.69,41.291,37.721,40.701,38.619,39.952z M39.95,38.621c0.749-0.898,1.34-1.929,1.753-3.046l3.647,0.977c-0.602,1.759-1.539,3.359-2.739,4.729L39.95,38.621z M34.736,18.153l-0.979,3.654C33.185,21.709,32.6,21.647,32,21.647c-0.6,0-1.185,0.062-1.758,0.161l-0.979-3.654c0.886-0.175,1.8-0.271,2.737-0.271C32.936,17.882,33.85,17.979,34.736,18.153z M29.264,45.847l0.979-3.654c0.572,0.098,1.157,0.161,1.757,0.161c0.6,0,1.184-0.062,1.756-0.161l0.979,3.654c-0.886,0.175-1.799,0.271-2.735,0.271C31.064,46.118,30.15,46.021,29.264,45.847z"/>
        </g>
    </symbol>

    <symbol id="icon-wordpress" viewBox="0 0 32 32">
        <path class="path1" d="M2.268 16q0-2.911 1.196-5.589l6.554 17.946q-3.5-1.696-5.625-5.018t-2.125-7.339zM25.268 15.304q0 0.339-0.045 0.688t-0.179 0.884-0.205 0.786-0.313 1.054-0.313 1.036l-1.357 4.571-4.964-14.75q0.821-0.054 1.571-0.143 0.339-0.036 0.464-0.33t-0.045-0.554-0.509-0.241l-3.661 0.179q-1.339-0.018-3.607-0.179-0.214-0.018-0.366 0.089t-0.205 0.268-0.027 0.33 0.161 0.295 0.348 0.143l1.429 0.143 2.143 5.857-3 9-5-14.857q0.821-0.054 1.571-0.143 0.339-0.036 0.464-0.33t-0.045-0.554-0.509-0.241l-3.661 0.179q-0.125 0-0.411-0.009t-0.464-0.009q1.875-2.857 4.902-4.527t6.563-1.67q2.625 0 5.009 0.946t4.259 2.661h-0.179q-0.982 0-1.643 0.723t-0.661 1.705q0 0.214 0.036 0.429t0.071 0.384 0.143 0.411 0.161 0.375 0.214 0.402 0.223 0.375 0.259 0.429 0.25 0.411q1.125 1.911 1.125 3.786zM16.232 17.196l4.232 11.554q0.018 0.107 0.089 0.196-2.25 0.786-4.554 0.786-2 0-3.875-0.571zM28.036 9.411q1.696 3.107 1.696 6.589 0 3.732-1.857 6.884t-4.982 4.973l4.196-12.107q1.054-3.018 1.054-4.929 0-0.75-0.107-1.411zM16 0q3.25 0 6.214 1.268t5.107 3.411 3.411 5.107 1.268 6.214-1.268 6.214-3.411 5.107-5.107 3.411-6.214 1.268-6.214-1.268-5.107-3.411-3.411-5.107-1.268-6.214 1.268-6.214 3.411-5.107 5.107-3.411 6.214-1.268zM16 31.268q3.089 0 5.92-1.214t4.875-3.259 3.259-4.875 1.214-5.92-1.214-5.92-3.259-4.875-4.875-3.259-5.92-1.214-5.92 1.214-4.875 3.259-3.259 4.875-1.214 5.92 1.214 5.92 3.259 4.875 4.875 3.259 5.92 1.214z"></path>
    </symbol>

    <symbol id="icon-yelp" viewBox="24 16 16 32">
        <g>
            <path d="M29.5,35.7c0.5-0.1,0.9-0.6,0.9-1.2c0-0.6-0.3-1.2-0.8-1.4c0,0-1.5-0.6-1.5-0.6 c-5-2.1-5.2-2.1-5.5-2.1c-0.4,0-0.7,0.2-1,0.6c-0.5,0.8-0.7,3.3-0.5,5c0.1,0.6,0.2,1,0.3,1.3c0.2,0.4,0.5,0.6,0.9,0.6 c0.2,0,0.4,0,5.1-1.5C27.5,36.4,29.5,35.7,29.5,35.7z M32.2,37.6c-0.6-0.2-1.2-0.1-1.5,0.4c0,0-1,1.2-1,1.2 c-3.5,4.1-3.7,4.3-3.7,4.5c-0.1,0.1-0.1,0.3-0.1,0.4c0,0.2,0.1,0.4,0.3,0.6c0.8,1,4.7,2.4,6,2.2c0.4-0.1,0.7-0.3,0.9-0.7 C33,46.1,33,45.9,33,41c0,0,0-2.2,0-2.2C33.1,38.3,32.7,37.8,32.2,37.6z M32.3,16.8c-0.1-0.4-0.4-0.7-0.9-0.8 c-1.3-0.3-6.5,1.1-7.5,2.1c-0.3,0.3-0.4,0.7-0.3,1.1c0.2,0.3,6.5,10.4,6.5,10.4c0.9,1.5,1.7,1.3,2,1.2c0.3-0.1,1-0.3,0.9-2.1 C33,26.6,32.4,17.3,32.3,16.8z M36.9,33.4C36.9,33.4,36.8,33.5,36.9,33.4c0.2-0.1,0.7-0.2,1.5-0.4c5.3-1.3,5.5-1.3,5.7-1.5 c0.3-0.2,0.5-0.6,0.5-1c0,0,0,0,0,0c-0.1-1.3-2.4-4.7-3.5-5.2c-0.4-0.2-0.8-0.2-1.1,0c-0.2,0.1-0.4,0.3-3.2,4.2c0,0-1.3,1.7-1.3,1.8 c-0.3,0.4-0.3,1,0,1.5C35.8,33.3,36.3,33.6,36.9,33.4z M44.4,38.6c-0.2-0.1-0.3-0.2-5-1.7c0,0-2-0.7-2.1-0.7c-0.5-0.2-1.1,0-1.4,0.5 c-0.4,0.5-0.5,1.1-0.1,1.6l0.8,1.3c2.8,4.5,3,4.8,3.2,5c0.3,0.2,0.7,0.3,1.1,0.1c1.2-0.5,3.7-3.7,3.9-5 C44.8,39.2,44.7,38.8,44.4,38.6z"/>
        </g>
    </symbol>

    <symbol id="icon-youtube" viewBox="24 16 16 32">
        <g>
            <path d="M46.7,26c0,0-0.3-2.1-1.2-3c-1.1-1.2-2.4-1.2-3-1.3C38.3,21.4,32,21.4,32,21.4h0 c0,0-6.3,0-10.5,0.3c-0.6,0.1-1.9,0.1-3,1.3c-0.9,0.9-1.2,3-1.2,3S17,28.4,17,30.9v2.3c0,2.4,0.3,4.9,0.3,4.9s0.3,2.1,1.2,3 c1.1,1.2,2.6,1.2,3.3,1.3c2.4,0.2,10.2,0.3,10.2,0.3s6.3,0,10.5-0.3c0.6-0.1,1.9-0.1,3-1.3c0.9-0.9,1.2-3,1.2-3s0.3-2.4,0.3-4.9 v-2.3C47,28.4,46.7,26,46.7,26z M28.9,35.9l0-8.4l8.1,4.2L28.9,35.9z"/>
        </g>
    </symbol>

    <symbol id="icon-houzz" viewBox="0 0 32 32">
	    <path d="M 16 2.28125 L 8 6.84375 L 8 16 L 16 11.4375 L 16 2.28125 z M 16 11.4375 L 24 16 L 24 6.84375 L 16 11.4375 z M 24 16 L 16 20.5625 L 16 29.71875 L 24 25.15625 L 24 16 z M 16 20.5625 L 8 16 L 8 25.15625 L 16 20.5625 z"/>
	</symbol>

<symbol id="icon-docker-hub" viewBox="0 0 60 43"><g xmlns="http://www.w3.org/2000/svg" fill-rule="evenodd"><path d="M3.757 15.768h6.04v5.873h-6.04V15.77zM11.17 15.768h6.04v5.873h-6.04V15.77zM11.17 8.24h6.04v5.87h-6.04V8.24zM18.58 15.768h6.043v5.873H18.58V15.77zM18.58 8.24h6.043v5.87H18.58V8.24zM25.993 15.768h6.042v5.873h-6.042V15.77zM25.993 8.24h6.042v5.87h-6.042V8.24zM33.405 15.768h6.042v5.873h-6.042V15.77zM25.993.708h6.042V6.58h-6.042V.708zM12.194 30.12c-.93 0-1.684.733-1.684 1.636 0 .902.755 1.635 1.684 1.635.928 0 1.683-.732 1.683-1.634 0-.903-.755-1.637-1.683-1.637"/><path d="M58.905 18.806c-2.03-1.138-4.73-1.294-7.03-.636-.283-2.377-1.89-4.46-3.8-5.953l-.758-.593-.638.716c-1.28 1.438-1.66 3.83-1.487 5.666.13 1.35.565 2.722 1.42 3.806-.65.38-1.388.682-2.045.9-1.34.44-2.795.685-4.21.685H.613l-.085.89c-.285 2.972.134 5.947 1.398 8.66l.544 1.078.062.1c3.737 6.17 10.3 8.768 17.452 8.768 13.846 0 25.265-6.01 30.51-18.708 3.505.178 7.09-.83 8.805-4.083l.437-.83-.832-.466zm-46.71 16.056c-1.764 0-3.198-1.394-3.198-3.106 0-1.713 1.434-3.107 3.197-3.107 1.763 0 3.197 1.393 3.197 3.106 0 1.712-1.433 3.106-3.196 3.106z"/></g>
</symbol>

<symbol id="icon-resident-advisor" width="64px" height="64px" viewBox="0 0 64 64" version="1.1" xmlns="http://www.w3.org/2000/svg" xmlns:xlink="http://www.w3.org/1999/xlink">
    <defs>
        <polygon id="path-1" points="0 0.0375166952 63.6792452 0.0375166952 63.6792452 30.5675955 0 30.5675955"></polygon>
    </defs>
    <g id="Symbols" stroke="none" stroke-width="1" fill="none" fill-rule="evenodd">
        <g id="Shape">
            <g id="resident-advisor-seeklogo.com" transform="translate(-0.372449, 15.754305)">
                <g id="Group-3" transform="translate(0.470623, 0.247847)">
                    <mask id="mask-2" fill="white">
                        <use xlink:href="#path-1"></use>
                    </mask>
                    <g id="Clip-2"></g>
                    <path d="M62.9822926,24.4787925 C63.409479,24.0719645 63.6792452,23.5018605 63.6792452,22.8655746 C63.6792452,22.2531878 63.3878269,21.7027613 62.9887609,21.2997462 L45.0091401,3.32012539 L39.5823604,8.74690514 L53.7380018,22.9025466 L33.6825026,22.9025466 C32.702098,22.8732005 31.9251416,22.5442656 31.2677483,21.9071626 L22.2687119,12.9081262 C21.3355607,12.0257009 20.0572696,11.4673762 18.6713307,11.4673762 C18.6664283,11.4673762 18.6618664,11.4680571 18.6576449,11.4680571 L18.6576449,11.4673762 L7.67492175,11.4673762 L7.67492175,7.71216609 L19.0494935,7.71216609 L19.0494935,7.71291506 C21.3031507,7.71400448 23.3139366,8.63639771 24.7878457,10.116639 L31.5002701,16.8289954 L36.9270499,11.4022156 L30.0841681,4.55933384 C27.2239116,1.7426539 23.3611218,0.0375166952 19.0300883,0.0375166952 C19.0255264,0.0375166952 19.0206921,0.0377890487 19.0160621,0.0377890487 L19.0160621,0.0375166952 L0,0.0375166952 L0,19.1419575 L16.0946622,19.1419575 L16.0946622,19.1431831 C17.1414529,19.1506728 18.0865196,19.5811956 18.7689013,20.2726331 L27.5823288,29.0863329 C28.4787803,29.9667156 29.6900045,30.521704 31.0330477,30.5716808 L55.3794083,30.5716808 C56.4043426,30.5581993 57.3300041,30.1385707 58.005577,29.4649724 L62.9860374,24.4849886 L62.9822926,24.4787925" id="Fill-1" fill="#000105" mask="url(#mask-2)"></path>
                </g>
            </g>
        </g>
    </g>
</symbol>

</svg>