<svg width="273px" height="102px" viewBox="0 0 273 102" version="1.1" xmlns="http://www.w3.org/2000/svg" xmlns:xlink="http://www.w3.org/1999/xlink">
    <!-- Generator: Sketch 41 (35326) - http://www.bohemiancoding.com/sketch -->
    <title>colophon-2</title>
    <desc>Created with Sketch.</desc>
    <defs></defs>
    <g id="Symbols-Test" stroke="none" stroke-width="1" fill="none" fill-rule="evenodd">
        <g id="colophon-2">
            <rect id="Rectangle" fill="#000000" x="18" y="20" width="66.6894531" height="1"></rect>
            <rect id="Rectangle" fill="#000000" x="18" y="25" width="66.6894531" height="1"></rect>
            <rect id="Rectangle-Copy" fill="#000000" x="18" y="30" width="66.6894531" height="1"></rect>
            <rect id="Rectangle-Copy-2" fill="#000000" x="18" y="35" width="66.6894531" height="1"></rect>
            <rect id="Rectangle-Copy-2" fill="#000000" x="18" y="40" width="66.6894531" height="1"></rect>
            <rect id="Rectangle-Copy-2" fill="#000000" x="18" y="45" width="66.6894531" height="1"></rect>
            <rect id="Rectangle-Copy-2" fill="#000000" x="18" y="50" width="48.3254945" height="1"></rect>
            <path d="" id="Path-2" stroke="#979797"></path>
            <rect id="Rectangle" fill="#000000" x="18" y="20" width="66.6894531" height="1"></rect>
            <rect id="Rectangle" fill="#000000" x="18" y="25" width="66.6894531" height="1"></rect>
            <rect id="Rectangle-Copy" fill="#000000" x="18" y="30" width="66.6894531" height="1"></rect>
            <rect id="Rectangle-Copy-2" fill="#000000" x="18" y="35" width="66.6894531" height="1"></rect>
            <rect id="Rectangle-Copy-2" fill="#000000" x="18" y="40" width="66.6894531" height="1"></rect>
            <rect id="Rectangle-Copy-2" fill="#000000" x="18" y="45" width="66.6894531" height="1"></rect>
            <rect id="Rectangle-Copy-2" fill="#000000" x="18" y="50" width="48.3254945" height="1"></rect>
            <path d="" id="Path-2" stroke="#979797"></path>
            <rect id="Rectangle" fill="#000000" x="103" y="20" width="66.6894531" height="1"></rect>
            <rect id="Rectangle" fill="#000000" x="103" y="25" width="66.6894531" height="1"></rect>
            <rect id="Rectangle-Copy" fill="#000000" x="103" y="30" width="66.6894531" height="1"></rect>
            <rect id="Rectangle-Copy-2" fill="#000000" x="103" y="35" width="66.6894531" height="1"></rect>
            <rect id="Rectangle-Copy-2" fill="#000000" x="103" y="40" width="66.6894531" height="1"></rect>
            <rect id="Rectangle-Copy-2" fill="#000000" x="103" y="45" width="66.6894531" height="1"></rect>
            <rect id="Rectangle-Copy-2" fill="#000000" x="103" y="50" width="48.3254945" height="1"></rect>
            <path d="" id="Path-2" stroke="#979797"></path>
            <rect id="Rectangle" fill="#000000" x="188" y="20" width="66.6894531" height="1"></rect>
            <rect id="Rectangle" fill="#000000" x="188" y="25" width="66.6894531" height="1"></rect>
            <rect id="Rectangle-Copy" fill="#000000" x="188" y="30" width="66.6894531" height="1"></rect>
            <rect id="Rectangle-Copy-2" fill="#000000" x="188" y="35" width="66.6894531" height="1"></rect>
            <rect id="Rectangle-Copy-2" fill="#000000" x="188" y="40" width="66.6894531" height="1"></rect>
            <rect id="Rectangle-Copy-2" fill="#000000" x="188" y="45" width="66.6894531" height="1"></rect>
            <rect id="Rectangle-Copy-2" fill="#000000" x="188" y="50" width="48.3254945" height="1"></rect>
            <path d="" id="Path-2" stroke="#979797"></path>
            <circle id="Oval" fill="#000000" transform="translate(44.500000, 81.500000) scale(-1, 1) translate(-44.500000, -81.500000) " cx="44.5" cy="81.5" r="2.5"></circle>
            <circle id="Oval" fill="#000000" transform="translate(38.500000, 81.500000) scale(-1, 1) translate(-38.500000, -81.500000) " cx="38.5" cy="81.5" r="2.5"></circle>
            <circle id="Oval" fill="#000000" transform="translate(32.500000, 81.500000) scale(-1, 1) translate(-32.500000, -81.500000) " cx="32.5" cy="81.5" r="2.5"></circle>
            <circle id="Oval" fill="#000000" transform="translate(26.500000, 81.500000) scale(-1, 1) translate(-26.500000, -81.500000) " cx="26.5" cy="81.5" r="2.5"></circle>
            <circle id="Oval" fill="#000000" transform="translate(20.500000, 81.500000) scale(-1, 1) translate(-20.500000, -81.500000) " cx="20.5" cy="81.5" r="2.5"></circle>
            <rect id="Rectangle" fill="#000000" transform="translate(59.500000, 81.500000) scale(-1, 1) translate(-59.500000, -81.500000) " x="55" y="81" width="9" height="1"></rect>
            <rect id="Rectangle" fill="#000000" transform="translate(71.500000, 81.500000) scale(-1, 1) translate(-71.500000, -81.500000) " x="67" y="81" width="9" height="1"></rect>
            <rect id="Rectangle" fill="#000000" transform="translate(83.500000, 81.500000) scale(-1, 1) translate(-83.500000, -81.500000) " x="79" y="81" width="9" height="1"></rect>
            <rect id="Rectangle" fill="#000000" transform="translate(95.500000, 81.500000) scale(-1, 1) translate(-95.500000, -81.500000) " x="91" y="81" width="9" height="1"></rect>
            <rect id="Rectangle" fill="#000000" transform="translate(107.500000, 81.500000) scale(-1, 1) translate(-107.500000, -81.500000) " x="103" y="81" width="9" height="1"></rect>
            <rect id="Rectangle" fill="#000000" transform="translate(234.750000, 81.500000) scale(-1, 1) translate(-234.750000, -81.500000) " x="226.5" y="81" width="16.5" height="1"></rect>
            <rect id="Rectangle" fill="#000000" transform="translate(250.500000, 81.500000) scale(-1, 1) translate(-250.500000, -81.500000) " x="246" y="81" width="9" height="1"></rect>
        </g>
    </g>
</svg>