<svg width="273px" height="102px" viewBox="0 0 273 102" version="1.1" xmlns="http://www.w3.org/2000/svg" xmlns:xlink="http://www.w3.org/1999/xlink">
    <!-- Generator: Sketch 41 (35326) - http://www.bohemiancoding.com/sketch -->
    <title>colophon-1</title>
    <desc>Created with Sketch.</desc>
    <defs></defs>
    <g id="Symbols-Test" stroke="none" stroke-width="1" fill="none" fill-rule="evenodd">
        <g id="colophon-1">
            <rect id="Rectangle" fill="#000000" x="18" y="20" width="66.6894531" height="1"></rect>
            <rect id="Rectangle" fill="#000000" x="18" y="25" width="66.6894531" height="1"></rect>
            <rect id="Rectangle-Copy" fill="#000000" x="18" y="30" width="66.6894531" height="1"></rect>
            <rect id="Rectangle-Copy-2" fill="#000000" x="18" y="35" width="66.6894531" height="1"></rect>
            <rect id="Rectangle-Copy-2" fill="#000000" x="18" y="40" width="66.6894531" height="1"></rect>
            <rect id="Rectangle-Copy-2" fill="#000000" x="18" y="45" width="66.6894531" height="1"></rect>
            <rect id="Rectangle-Copy-2" fill="#000000" x="18" y="50" width="48.3254945" height="1"></rect>
            <path d="" id="Path-2" stroke="#979797"></path>
            <rect id="Rectangle" fill="#000000" x="18" y="20" width="66.6894531" height="1"></rect>
            <rect id="Rectangle" fill="#000000" x="18" y="25" width="66.6894531" height="1"></rect>
            <rect id="Rectangle-Copy" fill="#000000" x="18" y="30" width="66.6894531" height="1"></rect>
            <rect id="Rectangle-Copy-2" fill="#000000" x="18" y="35" width="66.6894531" height="1"></rect>
            <rect id="Rectangle-Copy-2" fill="#000000" x="18" y="40" width="66.6894531" height="1"></rect>
            <rect id="Rectangle-Copy-2" fill="#000000" x="18" y="45" width="66.6894531" height="1"></rect>
            <rect id="Rectangle-Copy-2" fill="#000000" x="18" y="50" width="48.3254945" height="1"></rect>
            <path d="" id="Path-2" stroke="#979797"></path>
            <rect id="Rectangle" fill="#000000" x="103" y="20" width="66.6894531" height="1"></rect>
            <rect id="Rectangle" fill="#000000" x="103" y="25" width="66.6894531" height="1"></rect>
            <rect id="Rectangle-Copy" fill="#000000" x="103" y="30" width="66.6894531" height="1"></rect>
            <rect id="Rectangle-Copy-2" fill="#000000" x="103" y="35" width="66.6894531" height="1"></rect>
            <rect id="Rectangle-Copy-2" fill="#000000" x="103" y="40" width="66.6894531" height="1"></rect>
            <rect id="Rectangle-Copy-2" fill="#000000" x="103" y="45" width="66.6894531" height="1"></rect>
            <rect id="Rectangle-Copy-2" fill="#000000" x="103" y="50" width="48.3254945" height="1"></rect>
            <path d="" id="Path-2" stroke="#979797"></path>
            <rect id="Rectangle" fill="#000000" x="188" y="20" width="66.6894531" height="1"></rect>
            <rect id="Rectangle" fill="#000000" x="188" y="25" width="66.6894531" height="1"></rect>
            <rect id="Rectangle-Copy" fill="#000000" x="188" y="30" width="66.6894531" height="1"></rect>
            <rect id="Rectangle-Copy-2" fill="#000000" x="188" y="35" width="66.6894531" height="1"></rect>
            <rect id="Rectangle-Copy-2" fill="#000000" x="188" y="40" width="66.6894531" height="1"></rect>
            <rect id="Rectangle-Copy-2" fill="#000000" x="188" y="45" width="66.6894531" height="1"></rect>
            <rect id="Rectangle-Copy-2" fill="#000000" x="188" y="50" width="48.3254945" height="1"></rect>
            <path d="" id="Path-2" stroke="#979797"></path>
            <circle id="Oval" fill="#000000" transform="translate(252.500000, 81.500000) scale(-1, 1) translate(-252.500000, -81.500000) " cx="252.5" cy="81.5" r="2.5"></circle>
            <circle id="Oval" fill="#000000" transform="translate(246.500000, 81.500000) scale(-1, 1) translate(-246.500000, -81.500000) " cx="246.5" cy="81.5" r="2.5"></circle>
            <circle id="Oval" fill="#000000" transform="translate(240.500000, 81.500000) scale(-1, 1) translate(-240.500000, -81.500000) " cx="240.5" cy="81.5" r="2.5"></circle>
            <circle id="Oval" fill="#000000" transform="translate(234.500000, 81.500000) scale(-1, 1) translate(-234.500000, -81.500000) " cx="234.5" cy="81.5" r="2.5"></circle>
            <circle id="Oval" fill="#000000" transform="translate(228.500000, 81.500000) scale(-1, 1) translate(-228.500000, -81.500000) " cx="228.5" cy="81.5" r="2.5"></circle>
            <rect id="Rectangle" fill="#000000" transform="translate(164.500000, 81.500000) scale(-1, 1) translate(-164.500000, -81.500000) " x="160" y="81" width="9" height="1"></rect>
            <rect id="Rectangle" fill="#000000" transform="translate(176.500000, 81.500000) scale(-1, 1) translate(-176.500000, -81.500000) " x="172" y="81" width="9" height="1"></rect>
            <rect id="Rectangle" fill="#000000" transform="translate(188.500000, 81.500000) scale(-1, 1) translate(-188.500000, -81.500000) " x="184" y="81" width="9" height="1"></rect>
            <rect id="Rectangle" fill="#000000" transform="translate(200.500000, 81.500000) scale(-1, 1) translate(-200.500000, -81.500000) " x="196" y="81" width="9" height="1"></rect>
            <rect id="Rectangle" fill="#000000" transform="translate(212.500000, 81.500000) scale(-1, 1) translate(-212.500000, -81.500000) " x="208" y="81" width="9" height="1"></rect>
            <rect id="Rectangle" fill="#000000" transform="translate(38.750000, 81.500000) scale(-1, 1) translate(-38.750000, -81.500000) " x="30.5" y="81" width="16.5" height="1"></rect>
            <rect id="Rectangle" fill="#000000" transform="translate(22.500000, 81.500000) scale(-1, 1) translate(-22.500000, -81.500000) " x="18" y="81" width="9" height="1"></rect>
        </g>
    </g>
</svg>