<svg width="273px" height="102px" viewBox="0 0 273 102" version="1.1" xmlns="http://www.w3.org/2000/svg" xmlns:xlink="http://www.w3.org/1999/xlink">
    <!-- Generator: Sketch 41 (35326) - http://www.bohemiancoding.com/sketch -->
    <title>colophon-3</title>
    <desc>Created with Sketch.</desc>
    <defs></defs>
    <g id="Symbols-Test" stroke="none" stroke-width="1" fill="none" fill-rule="evenodd">
        <g id="colophon-3">
            <rect id="Rectangle" fill="#000000" x="18" y="20" width="66.6894531" height="1"></rect>
            <rect id="Rectangle" fill="#000000" x="18" y="25" width="66.6894531" height="1"></rect>
            <rect id="Rectangle-Copy" fill="#000000" x="18" y="25" width="66.6894531" height="1"></rect>
            <rect id="Rectangle-Copy-2" fill="#000000" x="18" y="25" width="66.6894531" height="1"></rect>
            <rect id="Rectangle-Copy-2" fill="#000000" x="18" y="30" width="66.6894531" height="1"></rect>
            <rect id="Rectangle-Copy-2" fill="#000000" x="18" y="35" width="66.6894531" height="1"></rect>
            <rect id="Rectangle-Copy-2" fill="#000000" x="18" y="40" width="48.3254945" height="1"></rect>
            <path d="" id="Path-2" stroke="#979797"></path>
            <rect id="Rectangle" fill="#000000" x="18" y="20" width="66.6894531" height="1"></rect>
            <rect id="Rectangle" fill="#000000" x="18" y="25" width="66.6894531" height="1"></rect>
            <rect id="Rectangle-Copy" fill="#000000" x="18" y="25" width="66.6894531" height="1"></rect>
            <rect id="Rectangle-Copy-2" fill="#000000" x="18" y="25" width="66.6894531" height="1"></rect>
            <rect id="Rectangle-Copy-2" fill="#000000" x="18" y="30" width="66.6894531" height="1"></rect>
            <rect id="Rectangle-Copy-2" fill="#000000" x="18" y="35" width="66.6894531" height="1"></rect>
            <rect id="Rectangle-Copy-2" fill="#000000" x="18" y="40" width="48.3254945" height="1"></rect>
            <path d="" id="Path-2" stroke="#979797"></path>
            <rect id="Rectangle" fill="#000000" x="103" y="20" width="66.6894531" height="1"></rect>
            <rect id="Rectangle" fill="#000000" x="103" y="25" width="66.6894531" height="1"></rect>
            <rect id="Rectangle-Copy" fill="#000000" x="103" y="25" width="66.6894531" height="1"></rect>
            <rect id="Rectangle-Copy-2" fill="#000000" x="103" y="25" width="66.6894531" height="1"></rect>
            <rect id="Rectangle-Copy-2" fill="#000000" x="103" y="30" width="66.6894531" height="1"></rect>
            <rect id="Rectangle-Copy-2" fill="#000000" x="103" y="35" width="66.6894531" height="1"></rect>
            <rect id="Rectangle-Copy-2" fill="#000000" x="103" y="40" width="48.3254945" height="1"></rect>
            <path d="" id="Path-2" stroke="#979797"></path>
            <rect id="Rectangle" fill="#000000" x="188" y="20" width="66.6894531" height="1"></rect>
            <rect id="Rectangle" fill="#000000" x="188" y="25" width="66.6894531" height="1"></rect>
            <rect id="Rectangle-Copy" fill="#000000" x="188" y="25" width="66.6894531" height="1"></rect>
            <rect id="Rectangle-Copy-2" fill="#000000" x="188" y="25" width="66.6894531" height="1"></rect>
            <rect id="Rectangle-Copy-2" fill="#000000" x="188" y="30" width="66.6894531" height="1"></rect>
            <rect id="Rectangle-Copy-2" fill="#000000" x="188" y="35" width="66.6894531" height="1"></rect>
            <rect id="Rectangle-Copy-2" fill="#000000" x="188" y="40" width="48.3254945" height="1"></rect>
            <path d="" id="Path-2" stroke="#979797"></path>
            <circle id="Oval" fill="#000000" transform="translate(147.500000, 63.500000) scale(-1, 1) translate(-147.500000, -63.500000) " cx="147.5" cy="63.5" r="2.5"></circle>
            <circle id="Oval" fill="#000000" transform="translate(141.500000, 63.500000) scale(-1, 1) translate(-141.500000, -63.500000) " cx="141.5" cy="63.5" r="2.5"></circle>
            <circle id="Oval" fill="#000000" transform="translate(135.500000, 63.500000) scale(-1, 1) translate(-135.500000, -63.500000) " cx="135.5" cy="63.5" r="2.5"></circle>
            <circle id="Oval" fill="#000000" transform="translate(129.500000, 63.500000) scale(-1, 1) translate(-129.500000, -63.500000) " cx="129.5" cy="63.5" r="2.5"></circle>
            <circle id="Oval" fill="#000000" transform="translate(123.500000, 63.500000) scale(-1, 1) translate(-123.500000, -63.500000) " cx="123.5" cy="63.5" r="2.5"></circle>
            <rect id="Rectangle" fill="#000000" transform="translate(142.250000, 81.500000) scale(-1, 1) translate(-142.250000, -81.500000) " x="134" y="81" width="16.5" height="1"></rect>
            <rect id="Rectangle" fill="#000000" transform="translate(126.500000, 81.500000) scale(-1, 1) translate(-126.500000, -81.500000) " x="122" y="81" width="9" height="1"></rect>
            <rect id="Rectangle" fill="#000000" transform="translate(112.500000, 73.500000) scale(-1, 1) translate(-112.500000, -73.500000) " x="108" y="73" width="9" height="1"></rect>
            <rect id="Rectangle" fill="#000000" transform="translate(124.500000, 73.500000) scale(-1, 1) translate(-124.500000, -73.500000) " x="120" y="73" width="9" height="1"></rect>
            <rect id="Rectangle" fill="#000000" transform="translate(136.500000, 73.500000) scale(-1, 1) translate(-136.500000, -73.500000) " x="132" y="73" width="9" height="1"></rect>
            <rect id="Rectangle" fill="#000000" transform="translate(148.500000, 73.500000) scale(-1, 1) translate(-148.500000, -73.500000) " x="144" y="73" width="9" height="1"></rect>
            <rect id="Rectangle" fill="#000000" transform="translate(160.500000, 73.500000) scale(-1, 1) translate(-160.500000, -73.500000) " x="156" y="73" width="9" height="1"></rect>
        </g>
    </g>
</svg>