<svg width="273px" height="102px" viewBox="0 0 273 102" version="1.1" xmlns="http://www.w3.org/2000/svg" xmlns:xlink="http://www.w3.org/1999/xlink">
    <!-- Generator: Sketch 41 (35326) - http://www.bohemiancoding.com/sketch -->
    <title>footer-col-3-1</title>
    <desc>Created with Sketch.</desc>
    <defs></defs>
    <g id="Symbols-Test" stroke="none" stroke-width="1" fill="none" fill-rule="evenodd">
        <g id="footer-col-3-1">
            <rect id="Rectangle" fill="#000000" x="18" y="36" width="25.9257812" height="1"></rect>
            <rect id="Rectangle" fill="#000000" x="18" y="41" width="25.9257812" height="1"></rect>
            <rect id="Rectangle-Copy" fill="#000000" x="18" y="46" width="25.9257812" height="1"></rect>
            <rect id="Rectangle-Copy-2" fill="#000000" x="18" y="51" width="25.9257812" height="1"></rect>
            <rect id="Rectangle-Copy-2" fill="#000000" x="18" y="56" width="25.9257812" height="1"></rect>
            <rect id="Rectangle-Copy-2" fill="#000000" x="18" y="61" width="25.9257812" height="1"></rect>
            <rect id="Rectangle-Copy-2" fill="#000000" x="18" y="66" width="18.7867698" height="1"></rect>
            <rect id="Rectangle" fill="#000000" x="18" y="36" width="25.9257812" height="1"></rect>
            <rect id="Rectangle" fill="#000000" x="18" y="41" width="25.9257812" height="1"></rect>
            <rect id="Rectangle-Copy" fill="#000000" x="18" y="46" width="25.9257812" height="1"></rect>
            <rect id="Rectangle-Copy-2" fill="#000000" x="18" y="51" width="25.9257812" height="1"></rect>
            <rect id="Rectangle-Copy-2" fill="#000000" x="18" y="56" width="25.9257812" height="1"></rect>
            <rect id="Rectangle-Copy-2" fill="#000000" x="18" y="61" width="25.9257812" height="1"></rect>
            <rect id="Rectangle-Copy-2" fill="#000000" x="18" y="66" width="18.7867698" height="1"></rect>
            <rect id="Rectangle" fill="#000000" x="62" y="36" width="25.9257812" height="1"></rect>
            <rect id="Rectangle" fill="#000000" x="62" y="41" width="25.9257812" height="1"></rect>
            <rect id="Rectangle-Copy" fill="#000000" x="62" y="46" width="25.9257812" height="1"></rect>
            <rect id="Rectangle-Copy-2" fill="#000000" x="62" y="51" width="25.9257812" height="1"></rect>
            <rect id="Rectangle-Copy-2" fill="#000000" x="62" y="56" width="25.9257812" height="1"></rect>
            <rect id="Rectangle-Copy-2" fill="#000000" x="62" y="61" width="25.9257812" height="1"></rect>
            <rect id="Rectangle-Copy-2" fill="#000000" x="62" y="66" width="18.7867698" height="1"></rect>
            <rect id="Rectangle" fill="#000000" x="62" y="36" width="25.9257812" height="1"></rect>
            <rect id="Rectangle" fill="#000000" x="62" y="41" width="25.9257812" height="1"></rect>
            <rect id="Rectangle-Copy" fill="#000000" x="62" y="46" width="25.9257812" height="1"></rect>
            <rect id="Rectangle-Copy-2" fill="#000000" x="62" y="51" width="25.9257812" height="1"></rect>
            <rect id="Rectangle-Copy-2" fill="#000000" x="62" y="56" width="25.9257812" height="1"></rect>
            <rect id="Rectangle-Copy-2" fill="#000000" x="62" y="61" width="25.9257812" height="1"></rect>
            <rect id="Rectangle-Copy-2" fill="#000000" x="62" y="66" width="18.7867698" height="1"></rect>
            <rect id="Rectangle-Copy-16" fill="#000000" x="62" y="36" width="25.9257812" height="1"></rect>
            <rect id="Rectangle-Copy-15" fill="#000000" x="62" y="41" width="25.9257812" height="1"></rect>
            <rect id="Rectangle-Copy-14" fill="#000000" x="62" y="46" width="25.9257812" height="1"></rect>
            <rect id="Rectangle-Copy-13" fill="#000000" x="62" y="51" width="25.9257812" height="1"></rect>
            <rect id="Rectangle-Copy-12" fill="#000000" x="62" y="56" width="25.9257812" height="1"></rect>
            <rect id="Rectangle-Copy-11" fill="#000000" x="62" y="61" width="25.9257812" height="1"></rect>
            <rect id="Rectangle-Copy-10" fill="#000000" x="62" y="66" width="18.7867698" height="1"></rect>
            <rect id="Rectangle-Copy-9" fill="#000000" x="62" y="36" width="25.9257812" height="1"></rect>
            <rect id="Rectangle-Copy-8" fill="#000000" x="62" y="41" width="25.9257812" height="1"></rect>
            <rect id="Rectangle-Copy-7" fill="#000000" x="62" y="46" width="25.9257812" height="1"></rect>
            <rect id="Rectangle-Copy-6" fill="#000000" x="62" y="51" width="25.9257812" height="1"></rect>
            <rect id="Rectangle-Copy-5" fill="#000000" x="62" y="56" width="25.9257812" height="1"></rect>
            <rect id="Rectangle-Copy-4" fill="#000000" x="62" y="61" width="25.9257812" height="1"></rect>
            <rect id="Rectangle-Copy-3" fill="#000000" x="62" y="66" width="18.7867698" height="1"></rect>
            <rect id="Rectangle-Copy-16" fill="#000000" x="106" y="36" width="25.9257812" height="1"></rect>
            <rect id="Rectangle-Copy-15" fill="#000000" x="106" y="41" width="25.9257812" height="1"></rect>
            <rect id="Rectangle-Copy-14" fill="#000000" x="106" y="46" width="25.9257812" height="1"></rect>
            <rect id="Rectangle-Copy-13" fill="#000000" x="106" y="51" width="25.9257812" height="1"></rect>
            <rect id="Rectangle-Copy-12" fill="#000000" x="106" y="56" width="25.9257812" height="1"></rect>
            <rect id="Rectangle-Copy-11" fill="#000000" x="106" y="61" width="25.9257812" height="1"></rect>
            <rect id="Rectangle-Copy-10" fill="#000000" x="106" y="66" width="18.7867698" height="1"></rect>
            <rect id="Rectangle-Copy-9" fill="#000000" x="106" y="36" width="25.9257812" height="1"></rect>
            <rect id="Rectangle-Copy-8" fill="#000000" x="106" y="41" width="25.9257812" height="1"></rect>
            <rect id="Rectangle-Copy-7" fill="#000000" x="106" y="46" width="25.9257812" height="1"></rect>
            <rect id="Rectangle-Copy-6" fill="#000000" x="106" y="51" width="25.9257812" height="1"></rect>
            <rect id="Rectangle-Copy-5" fill="#000000" x="106" y="56" width="25.9257812" height="1"></rect>
            <rect id="Rectangle-Copy-4" fill="#000000" x="106" y="61" width="25.9257812" height="1"></rect>
            <rect id="Rectangle-Copy-3" fill="#000000" x="106" y="66" width="18.7867698" height="1"></rect>
            <rect id="Rectangle" fill="#000000" x="169.447266" y="36" width="85.3046875" height="1"></rect>
            <rect id="Rectangle" fill="#000000" x="169.447266" y="41" width="85.3046875" height="1"></rect>
            <rect id="Rectangle-Copy" fill="#000000" x="169.447266" y="46" width="85.3046875" height="1"></rect>
            <rect id="Rectangle-Copy-2" fill="#000000" x="169.447266" y="51" width="85.3046875" height="1"></rect>
            <rect id="Rectangle-Copy-2" fill="#000000" x="169.447266" y="56" width="85.3046875" height="1"></rect>
            <rect id="Rectangle-Copy-2" fill="#000000" x="169.447266" y="61" width="85.3046875" height="1"></rect>
            <rect id="Rectangle-Copy-2" fill="#000000" x="169.447266" y="66" width="61.8147401" height="1"></rect>
            <path d="" id="Path-2" stroke="#979797"></path>
        </g>
    </g>
</svg>