<svg width="273px" height="102px" viewBox="0 0 273 102" version="1.1" xmlns="http://www.w3.org/2000/svg" xmlns:xlink="http://www.w3.org/1999/xlink">
    <!-- Generator: Sketch 41 (35326) - http://www.bohemiancoding.com/sketch -->
    <title>Artboard</title>
    <desc>Created with Sketch.</desc>
    <defs></defs>
    <g id="Symbols-Test" stroke="none" stroke-width="1" fill="none" fill-rule="evenodd">
        <g id="Artboard">
            <rect id="Rectangle" fill="#000000" x="18" y="36" width="66.6894531" height="1"></rect>
            <rect id="Rectangle" fill="#000000" x="18" y="41" width="66.6894531" height="1"></rect>
            <rect id="Rectangle-Copy" fill="#000000" x="18" y="46" width="66.6894531" height="1"></rect>
            <rect id="Rectangle-Copy-2" fill="#000000" x="18" y="51" width="66.6894531" height="1"></rect>
            <rect id="Rectangle-Copy-2" fill="#000000" x="18" y="56" width="66.6894531" height="1"></rect>
            <rect id="Rectangle-Copy-2" fill="#000000" x="18" y="61" width="66.6894531" height="1"></rect>
            <rect id="Rectangle-Copy-2" fill="#000000" x="18" y="66" width="48.3254945" height="1"></rect>
            <path d="" id="Path-2" stroke="#979797"></path>
            <rect id="Rectangle" fill="#000000" x="18" y="36" width="66.6894531" height="1"></rect>
            <rect id="Rectangle" fill="#000000" x="18" y="41" width="66.6894531" height="1"></rect>
            <rect id="Rectangle-Copy" fill="#000000" x="18" y="46" width="66.6894531" height="1"></rect>
            <rect id="Rectangle-Copy-2" fill="#000000" x="18" y="51" width="66.6894531" height="1"></rect>
            <rect id="Rectangle-Copy-2" fill="#000000" x="18" y="56" width="66.6894531" height="1"></rect>
            <rect id="Rectangle-Copy-2" fill="#000000" x="18" y="61" width="66.6894531" height="1"></rect>
            <rect id="Rectangle-Copy-2" fill="#000000" x="18" y="66" width="48.3254945" height="1"></rect>
            <path d="" id="Path-2" stroke="#979797"></path>
            <rect id="Rectangle" fill="#000000" x="103" y="36" width="66.6894531" height="1"></rect>
            <rect id="Rectangle" fill="#000000" x="103" y="41" width="66.6894531" height="1"></rect>
            <rect id="Rectangle-Copy" fill="#000000" x="103" y="46" width="66.6894531" height="1"></rect>
            <rect id="Rectangle-Copy-2" fill="#000000" x="103" y="51" width="66.6894531" height="1"></rect>
            <rect id="Rectangle-Copy-2" fill="#000000" x="103" y="56" width="66.6894531" height="1"></rect>
            <rect id="Rectangle-Copy-2" fill="#000000" x="103" y="61" width="66.6894531" height="1"></rect>
            <rect id="Rectangle-Copy-2" fill="#000000" x="103" y="66" width="48.3254945" height="1"></rect>
            <path d="" id="Path-2" stroke="#979797"></path>
            <rect id="Rectangle" fill="#000000" x="188" y="36" width="66.6894531" height="1"></rect>
            <rect id="Rectangle" fill="#000000" x="188" y="41" width="66.6894531" height="1"></rect>
            <rect id="Rectangle-Copy" fill="#000000" x="188" y="46" width="66.6894531" height="1"></rect>
            <rect id="Rectangle-Copy-2" fill="#000000" x="188" y="51" width="66.6894531" height="1"></rect>
            <rect id="Rectangle-Copy-2" fill="#000000" x="188" y="56" width="66.6894531" height="1"></rect>
            <rect id="Rectangle-Copy-2" fill="#000000" x="188" y="61" width="66.6894531" height="1"></rect>
            <rect id="Rectangle-Copy-2" fill="#000000" x="188" y="66" width="48.3254945" height="1"></rect>
            <path d="" id="Path-2" stroke="#979797"></path>
        </g>
    </g>
</svg>