<svg width="273px" height="102px" viewBox="0 0 273 102" version="1.1" xmlns="http://www.w3.org/2000/svg" xmlns:xlink="http://www.w3.org/1999/xlink">
    <!-- Generator: Sketch 41 (35326) - http://www.bohemiancoding.com/sketch -->
    <title>footer-col-4</title>
    <desc>Created with Sketch.</desc>
    <defs></defs>
    <g id="Symbols-Test" stroke="none" stroke-width="1" fill="none" fill-rule="evenodd">
        <g id="footer-col-4">
            <rect id="Rectangle" fill="#000000" x="18" y="36" width="52.7519531" height="1"></rect>
            <rect id="Rectangle" fill="#000000" x="18" y="41" width="52.7519531" height="1"></rect>
            <rect id="Rectangle-Copy" fill="#000000" x="18" y="46" width="52.7519531" height="1"></rect>
            <rect id="Rectangle-Copy-2" fill="#000000" x="18" y="51" width="52.7519531" height="1"></rect>
            <rect id="Rectangle-Copy-2" fill="#000000" x="18" y="56" width="52.7519531" height="1"></rect>
            <rect id="Rectangle-Copy-2" fill="#000000" x="18" y="61" width="52.7519531" height="1"></rect>
            <rect id="Rectangle-Copy-2" fill="#000000" x="18" y="66" width="38.2258979" height="1"></rect>
            <path d="" id="Path-2" stroke="#979797"></path>
            <rect id="Rectangle" fill="#000000" x="18" y="36" width="52.7519531" height="1"></rect>
            <rect id="Rectangle" fill="#000000" x="18" y="41" width="52.7519531" height="1"></rect>
            <rect id="Rectangle-Copy" fill="#000000" x="18" y="46" width="52.7519531" height="1"></rect>
            <rect id="Rectangle-Copy-2" fill="#000000" x="18" y="51" width="52.7519531" height="1"></rect>
            <rect id="Rectangle-Copy-2" fill="#000000" x="18" y="56" width="52.7519531" height="1"></rect>
            <rect id="Rectangle-Copy-2" fill="#000000" x="18" y="61" width="52.7519531" height="1"></rect>
            <rect id="Rectangle-Copy-2" fill="#000000" x="18" y="66" width="38.2258979" height="1"></rect>
            <path d="" id="Path-2" stroke="#979797"></path>
            <rect id="Rectangle" fill="#000000" x="79" y="36" width="52.7519531" height="1"></rect>
            <rect id="Rectangle" fill="#000000" x="79" y="41" width="52.7519531" height="1"></rect>
            <rect id="Rectangle-Copy" fill="#000000" x="79" y="46" width="52.7519531" height="1"></rect>
            <rect id="Rectangle-Copy-2" fill="#000000" x="79" y="51" width="52.7519531" height="1"></rect>
            <rect id="Rectangle-Copy-2" fill="#000000" x="79" y="56" width="52.7519531" height="1"></rect>
            <rect id="Rectangle-Copy-2" fill="#000000" x="79" y="61" width="52.7519531" height="1"></rect>
            <rect id="Rectangle-Copy-2" fill="#000000" x="79" y="66" width="38.2258979" height="1"></rect>
            <path d="" id="Path-2" stroke="#979797"></path>
            <rect id="Rectangle" fill="#000000" x="141" y="36" width="52.7519531" height="1"></rect>
            <rect id="Rectangle" fill="#000000" x="141" y="41" width="52.7519531" height="1"></rect>
            <rect id="Rectangle-Copy" fill="#000000" x="141" y="46" width="52.7519531" height="1"></rect>
            <rect id="Rectangle-Copy-2" fill="#000000" x="141" y="51" width="52.7519531" height="1"></rect>
            <rect id="Rectangle-Copy-2" fill="#000000" x="141" y="56" width="52.7519531" height="1"></rect>
            <rect id="Rectangle-Copy-2" fill="#000000" x="141" y="61" width="52.7519531" height="1"></rect>
            <rect id="Rectangle-Copy-2" fill="#000000" x="141" y="66" width="38.2258979" height="1"></rect>
            <path d="" id="Path-2" stroke="#979797"></path>
            <rect id="Rectangle" fill="#000000" x="202" y="36" width="52.7519531" height="1"></rect>
            <rect id="Rectangle" fill="#000000" x="202" y="41" width="52.7519531" height="1"></rect>
            <rect id="Rectangle-Copy" fill="#000000" x="202" y="46" width="52.7519531" height="1"></rect>
            <rect id="Rectangle-Copy-2" fill="#000000" x="202" y="51" width="52.7519531" height="1"></rect>
            <rect id="Rectangle-Copy-2" fill="#000000" x="202" y="56" width="52.7519531" height="1"></rect>
            <rect id="Rectangle-Copy-2" fill="#000000" x="202" y="61" width="52.7519531" height="1"></rect>
            <rect id="Rectangle-Copy-2" fill="#000000" x="202" y="66" width="38.2258979" height="1"></rect>
            <path d="" id="Path-2" stroke="#979797"></path>
        </g>
    </g>
</svg>