<?xml version="1.0" encoding="UTF-8"?>
<svg width="273px" height="102px" viewBox="0 0 273 102" version="1.1" xmlns="http://www.w3.org/2000/svg" xmlns:xlink="http://www.w3.org/1999/xlink">
    <!-- Generator: Sketch 41 (35326) - http://www.bohemiancoding.com/sketch -->
    <title>top-header-1</title>
    <desc>Created with Sketch.</desc>
    <defs></defs>
    <g id="Symbols-Test" stroke="none" stroke-width="1" fill="none" fill-rule="evenodd">
        <g id="top-header-1">
            <path d="" id="Path-2" stroke="#979797" fill="#F0F0F0"></path>
            <path d="" id="Path-2" stroke="#979797" fill="#F0F0F0"></path>
            <rect id="Rectangle" fill="#F0F0F0" x="18" y="78" width="77" height="39"></rect>
            <rect id="Rectangle" fill="#F4F4F4" x="0" y="0" width="273" height="33"></rect>
            <rect id="Rectangle" fill="#F0F0F0" x="105" y="78" width="64" height="39"></rect>
            <rect id="Rectangle-Copy" fill="#F0F0F0" x="98" y="78" width="77" height="39"></rect>
            <rect id="Rectangle-Copy" fill="#F0F0F0" x="178" y="78" width="77" height="39"></rect>
            <path d="" id="Path-2" stroke="#979797"></path>
            <path d="" id="Path-2" stroke="#979797"></path>
            <circle id="Oval" fill="#000000" transform="translate(258.500000, 16.500000) scale(-1, 1) translate(-258.500000, -16.500000) " cx="258.5" cy="16.5" r="2.5"></circle>
            <circle id="Oval" fill="#000000" transform="translate(252.500000, 16.500000) scale(-1, 1) translate(-252.500000, -16.500000) " cx="252.5" cy="16.5" r="2.5"></circle>
            <circle id="Oval" fill="#000000" transform="translate(246.500000, 16.500000) scale(-1, 1) translate(-246.500000, -16.500000) " cx="246.5" cy="16.5" r="2.5"></circle>
            <circle id="Oval" fill="#000000" transform="translate(252.500000, 16.500000) scale(-1, 1) translate(-252.500000, -16.500000) " cx="252.5" cy="16.5" r="2.5"></circle>
            <circle id="Oval" fill="#000000" transform="translate(240.500000, 16.500000) scale(-1, 1) translate(-240.500000, -16.500000) " cx="240.5" cy="16.5" r="2.5"></circle>
            <circle id="Oval" fill="#000000" transform="translate(234.500000, 16.500000) scale(-1, 1) translate(-234.500000, -16.500000) " cx="234.5" cy="16.5" r="2.5"></circle>
            <circle id="Oval" fill="#000000" transform="translate(228.500000, 16.500000) scale(-1, 1) translate(-228.500000, -16.500000) " cx="228.5" cy="16.5" r="2.5"></circle>
            <circle id="Oval" fill="#000000" transform="translate(222.500000, 16.500000) scale(-1, 1) translate(-222.500000, -16.500000) " cx="222.5" cy="16.5" r="2.5"></circle>
            <rect id="Rectangle" fill="#000000" transform="translate(105.500000, 16.500000) scale(-1, 1) translate(-105.500000, -16.500000) " x="101" y="16" width="9" height="1"></rect>
            <rect id="Rectangle" fill="#000000" transform="translate(117.500000, 16.500000) scale(-1, 1) translate(-117.500000, -16.500000) " x="113" y="16" width="9" height="1"></rect>
            <rect id="Rectangle" fill="#000000" transform="translate(129.500000, 16.500000) scale(-1, 1) translate(-129.500000, -16.500000) " x="125" y="16" width="9" height="1"></rect>
            <rect id="Rectangle" fill="#000000" transform="translate(141.500000, 16.500000) scale(-1, 1) translate(-141.500000, -16.500000) " x="137" y="16" width="9" height="1"></rect>
            <rect id="Rectangle" fill="#000000" transform="translate(153.500000, 16.500000) scale(-1, 1) translate(-153.500000, -16.500000) " x="149" y="16" width="9" height="1"></rect>
            <rect id="Rectangle" fill="#000000" transform="translate(165.500000, 16.500000) scale(-1, 1) translate(-165.500000, -16.500000) " x="161" y="16" width="9" height="1"></rect>
            <path d="" id="Path-2" stroke="#979797"></path>
            <path d="" id="Path-2" stroke="#979797" fill="#F0F0F0"></path>
            <rect id="Rectangle" fill="#F0F0F0" x="26" y="54" width="16" height="1"></rect>
            <circle id="Oval" fill="#F0F0F0" cx="20.5" cy="54.5" r="2.5"></circle>
            <rect id="Rectangle" fill="#F0F0F0" x="46" y="54" width="16" height="1"></rect>
            <rect id="Rectangle" fill="#F0F0F0" x="66" y="54" width="16" height="1"></rect>
            <path d="" id="Path-2" stroke="#979797" fill="#F0F0F0"></path>
            <rect id="Rectangle" fill="#F0F0F0" transform="translate(199.000000, 54.500000) scale(-1, 1) translate(-199.000000, -54.500000) " x="191" y="54" width="16" height="1"></rect>
            <circle id="Oval" fill="#F0F0F0" transform="translate(252.500000, 54.500000) scale(-1, 1) translate(-252.500000, -54.500000) " cx="252.5" cy="54.5" r="2.5"></circle>
            <rect id="Rectangle" fill="#F0F0F0" transform="translate(219.000000, 54.500000) scale(-1, 1) translate(-219.000000, -54.500000) " x="211" y="54" width="16" height="1"></rect>
            <rect id="Rectangle" fill="#F0F0F0" transform="translate(239.000000, 54.500000) scale(-1, 1) translate(-239.000000, -54.500000) " x="231" y="54" width="16" height="1"></rect>
            <rect id="Rectangle" fill="#F0F0F0" x="121" y="48" width="30.6778253" height="12.925695"></rect>
        </g>
    </g>
</svg>