<?xml version="1.0" encoding="UTF-8"?>
<svg width="273px" height="102px" viewBox="0 0 273 102" version="1.1" xmlns="http://www.w3.org/2000/svg" xmlns:xlink="http://www.w3.org/1999/xlink">
    <!-- Generator: Sketch 41 (35326) - http://www.bohemiancoding.com/sketch -->
    <title>top-header-3</title>
    <desc>Created with Sketch.</desc>
    <defs></defs>
    <g id="Symbols-Test" stroke="none" stroke-width="1" fill="none" fill-rule="evenodd">
        <g id="top-header-3">
            <path d="" id="Path-2" stroke="#979797" fill="#F0F0F0"></path>
            <path d="" id="Path-2" stroke="#979797" fill="#F0F0F0"></path>
            <rect id="Rectangle" fill="#F0F0F0" x="18" y="78" width="77" height="39"></rect>
            <rect id="Rectangle" fill="#F4F4F4" x="0" y="0" width="273" height="33"></rect>
            <rect id="Rectangle" fill="#F0F0F0" x="105" y="78" width="64" height="39"></rect>
            <rect id="Rectangle-Copy" fill="#F0F0F0" x="98" y="78" width="77" height="39"></rect>
            <rect id="Rectangle-Copy" fill="#F0F0F0" x="178" y="78" width="77" height="39"></rect>
            <path d="" id="Path-2" stroke="#979797"></path>
            <path d="" id="Path-2" stroke="#979797"></path>
            <circle id="Oval" fill="#000000" transform="translate(49.500000, 16.500000) scale(-1, 1) translate(-49.500000, -16.500000) " cx="49.5" cy="16.5" r="2.5"></circle>
            <circle id="Oval" fill="#000000" transform="translate(37.500000, 16.500000) scale(-1, 1) translate(-37.500000, -16.500000) " cx="37.5" cy="16.5" r="2.5"></circle>
            <circle id="Oval" fill="#000000" transform="translate(43.500000, 16.500000) scale(-1, 1) translate(-43.500000, -16.500000) " cx="43.5" cy="16.5" r="2.5"></circle>
            <circle id="Oval" fill="#000000" transform="translate(31.500000, 16.500000) scale(-1, 1) translate(-31.500000, -16.500000) " cx="31.5" cy="16.5" r="2.5"></circle>
            <circle id="Oval" fill="#000000" transform="translate(25.500000, 16.500000) scale(-1, 1) translate(-25.500000, -16.500000) " cx="25.5" cy="16.5" r="2.5"></circle>
            <circle id="Oval" fill="#000000" transform="translate(19.500000, 16.500000) scale(-1, 1) translate(-19.500000, -16.500000) " cx="19.5" cy="16.5" r="2.5"></circle>
            <circle id="Oval" fill="#000000" transform="translate(13.500000, 16.500000) scale(-1, 1) translate(-13.500000, -16.500000) " cx="13.5" cy="16.5" r="2.5"></circle>
            <rect id="Rectangle" fill="#000000" transform="translate(195.500000, 16.500000) scale(-1, 1) translate(-195.500000, -16.500000) " x="191" y="16" width="9" height="1"></rect>
            <rect id="Rectangle" fill="#000000" transform="translate(207.500000, 16.500000) scale(-1, 1) translate(-207.500000, -16.500000) " x="203" y="16" width="9" height="1"></rect>
            <rect id="Rectangle" fill="#000000" transform="translate(219.500000, 16.500000) scale(-1, 1) translate(-219.500000, -16.500000) " x="215" y="16" width="9" height="1"></rect>
            <rect id="Rectangle" fill="#000000" transform="translate(231.500000, 16.500000) scale(-1, 1) translate(-231.500000, -16.500000) " x="227" y="16" width="9" height="1"></rect>
            <rect id="Rectangle" fill="#000000" transform="translate(243.500000, 16.500000) scale(-1, 1) translate(-243.500000, -16.500000) " x="239" y="16" width="9" height="1"></rect>
            <rect id="Rectangle" fill="#000000" transform="translate(255.500000, 16.500000) scale(-1, 1) translate(-255.500000, -16.500000) " x="251" y="16" width="9" height="1"></rect>
            <path d="" id="Path-2" stroke="#979797"></path>
            <path d="" id="Path-2" stroke="#979797" fill="#F0F0F0"></path>
            <rect id="Rectangle" fill="#F0F0F0" x="26" y="54" width="16" height="1"></rect>
            <circle id="Oval" fill="#F0F0F0" cx="20.5" cy="54.5" r="2.5"></circle>
            <rect id="Rectangle" fill="#F0F0F0" x="46" y="54" width="16" height="1"></rect>
            <rect id="Rectangle" fill="#F0F0F0" x="66" y="54" width="16" height="1"></rect>
            <path d="" id="Path-2" stroke="#979797" fill="#F0F0F0"></path>
            <rect id="Rectangle" fill="#F0F0F0" transform="translate(199.000000, 54.500000) scale(-1, 1) translate(-199.000000, -54.500000) " x="191" y="54" width="16" height="1"></rect>
            <circle id="Oval" fill="#F0F0F0" transform="translate(252.500000, 54.500000) scale(-1, 1) translate(-252.500000, -54.500000) " cx="252.5" cy="54.5" r="2.5"></circle>
            <rect id="Rectangle" fill="#F0F0F0" transform="translate(219.000000, 54.500000) scale(-1, 1) translate(-219.000000, -54.500000) " x="211" y="54" width="16" height="1"></rect>
            <rect id="Rectangle" fill="#F0F0F0" transform="translate(239.000000, 54.500000) scale(-1, 1) translate(-239.000000, -54.500000) " x="231" y="54" width="16" height="1"></rect>
            <rect id="Rectangle" fill="#F0F0F0" x="121" y="48" width="30.6778253" height="12.925695"></rect>
        </g>
    </g>
</svg>